<?xml version="1.0" encoding="UTF-8" standalone="no"?>
<!DOCTYPE svg PUBLIC "-//W3C//DTD SVG 1.1//EN" "http://www.w3.org/Graphics/SVG/1.1/DTD/svg11.dtd">
<svg xmlns="http://www.w3.org/2000/svg" version="1.1" viewBox="0.00 0.00 1024.00 665.00">
<g stroke-width="2.00" fill="none" stroke-linecap="butt">
<path stroke="#c39f57" stroke-opacity="0.992" d="
  M 576.65 349.34
  Q 574.82 354.45 572.08 355.94"
/>
<path stroke="#c39f57" stroke-opacity="0.992" d="
  M 487.51 411.41
  Q 485.08 414.98 484.73 419.11"
/>
<path stroke="#c39f57" stroke-opacity="0.992" d="
  M 461.81 431.14
  Q 458.50 434.81 453.51 435.63"
/>
</g>
<g fill="#b28f4b" fill-opacity="0.992">
<ellipse cx="0.00" cy="0.00" transform="translate(710.92,276.40) rotate(-86.3)" rx="8.58" ry="8.30"/>
<circle cx="663.36" cy="295.72" r="5.46"/>
<path d="
  M 453.51 435.63
  Q 458.50 434.81 461.81 431.14
  L 505.05 456.78
  A 3.86 3.70 -7.6 0 1 505.61 457.19
  L 507.19 458.54
  A 0.38 0.37 20.4 0 0 507.81 458.26
  L 507.81 433.80
  A 1.90 1.90 0.0 0 0 506.87 432.16
  L 484.73 419.11
  Q 485.08 414.98 487.51 411.41
  L 511.06 425.16
  A 1.77 0.95 43.7 0 0 512.04 425.43
  Q 513.04 425.30 517.02 423.00
  Q 545.67 406.49 572.03 390.64
  A 1.22 1.22 0.0 0 0 572.62 389.58
  L 572.08 355.94
  Q 574.82 354.45 576.65 349.34
  Q 578.49 350.78 579.69 352.60
  A 0.43 0.43 0.0 0 0 580.33 352.69
  Q 581.44 351.75 582.03 351.51
  Q 617.68 337.01 655.45 328.47
  Q 668.69 325.47 678.24 323.50
  Q 698.57 319.32 718.56 319.04
  Q 727.18 318.92 734.26 320.15
  C 747.27 322.41 761.11 327.58 767.38 340.05
  C 775.68 356.55 765.53 371.84 753.62 382.86
  Q 744.78 391.05 737.87 395.85
  Q 721.64 407.15 705.04 414.88
  C 704.43 415.16 704.21 415.10 703.70 415.24
  A 0.90 0.87 -1.4 0 0 703.07 415.88
  C 701.04 423.96 695.97 428.09 687.54 425.40
  A 0.55 0.55 0.0 0 0 686.88 425.68
  C 681.16 437.25 670.60 439.97 658.52 440.77
  Q 646.88 441.55 633.50 440.61
  Q 618.71 439.56 606.19 433.98
  Q 599.54 431.01 591.44 425.80
  Q 588.48 423.90 586.44 421.99
  Q 584.66 420.34 581.35 418.14
  A 0.30 0.29 -72.3 0 0 580.90 418.38
  Q 580.79 422.92 580.66 424.01
  C 579.94 430.00 571.95 434.80 566.95 437.49
  A 0.45 0.45 0.0 0 0 566.82 438.18
  L 588.78 463.52
  A 1.94 1.74 15.3 0 1 589.00 463.86
  C 589.81 465.42 590.65 467.02 590.99 468.61
  C 592.16 474.00 591.93 478.94 591.92 485.16
  Q 591.91 504.24 587.51 519.32
  Q 580.88 542.06 562.37 559.11
  Q 562.05 559.41 553.36 566.62
  Q 548.67 570.51 544.05 573.75
  Q 527.20 585.56 518.02 591.54
  Q 516.05 592.82 516.08 595.10
  Q 516.18 602.22 516.01 609.24
  A 4.06 4.06 0.0 0 1 511.80 613.21
  L 511.53 613.21
  A 3.82 3.82 0.0 0 1 507.76 609.36
  L 507.88 593.27
  A 1.05 1.04 16.8 0 0 507.41 592.40
  C 488.26 580.01 475.15 571.24 461.81 560.01
  Q 456.97 555.95 451.39 549.00
  C 441.27 536.41 435.60 520.43 433.50 504.26
  Q 431.31 487.29 432.25 471.25
  Q 432.35 469.52 433.98 465.37
  A 6.66 6.57 76.8 0 1 435.19 463.39
  L 457.23 438.58
  A 0.67 0.67 0.0 0 0 456.88 437.48
  Q 455.11 437.08 453.51 435.63
  Z
  M 580.80 361.64
  L 649.47 377.40
  A 0.62 0.62 0.0 0 0 649.86 377.37
  Q 651.54 376.70 653.14 375.37
  Q 659.50 370.12 664.63 365.02
  A 0.86 0.84 58.0 0 0 664.83 364.12
  Q 662.82 358.49 666.13 353.51
  C 668.23 350.35 672.31 348.65 675.77 349.21
  Q 682.92 350.38 685.10 357.79
  A 0.64 0.64 0.0 0 0 685.71 358.24
  L 726.02 358.24
  A 3.52 3.50 -67.4 0 0 728.50 357.21
  L 750.25 335.46
  A 0.72 0.72 0.0 0 0 750.17 334.37
  Q 748.62 333.20 746.66 332.36
  C 736.25 327.92 725.78 327.20 713.15 327.63
  Q 703.91 327.94 699.96 328.44
  Q 687.76 330.00 671.86 333.34
  Q 665.19 334.74 662.43 335.29
  Q 654.59 336.84 639.14 340.96
  Q 627.56 344.05 616.19 347.82
  Q 596.09 354.48 580.72 360.73
  A 0.48 0.48 0.0 0 0 580.80 361.64
  Z
  M 756.71 340.52
  Q 743.80 353.95 733.60 363.71
  C 731.53 365.69 730.26 366.05 727.52 366.06
  Q 685.91 366.15 685.08 366.08
  A 2.48 2.46 -71.0 0 0 682.79 367.21
  Q 679.54 372.27 672.30 370.85
  A 2.70 2.70 0.0 0 0 670.00 371.46
  L 656.50 383.16
  A 0.49 0.48 -42.3 0 0 656.46 383.87
  Q 672.56 400.45 681.71 410.25
  Q 682.06 410.62 682.06 410.81
  Q 682.06 411.28 682.15 411.36
  A 0.53 0.52 36.9 0 0 682.95 411.25
  Q 689.35 400.92 699.76 407.99
  A 1.79 1.77 -41.6 0 0 701.59 408.09
  Q 716.33 400.35 730.67 390.92
  Q 740.14 384.69 748.50 376.86
  C 751.13 374.39 754.79 369.98 756.50 367.51
  C 762.23 359.19 765.08 348.78 757.51 340.53
  A 0.55 0.55 0.0 0 0 756.71 340.52
  Z
  M 580.57 383.60
  Q 581.18 390.45 580.85 403.65
  Q 580.80 405.51 581.30 407.48
  A 1.69 1.64 -81.0 0 0 581.98 408.45
  C 588.07 412.61 595.31 419.01 602.94 423.12
  Q 612.31 428.16 619.55 429.91
  Q 631.51 432.82 638.77 433.00
  Q 651.05 433.32 658.00 432.69
  C 667.16 431.85 675.60 430.41 679.65 420.93
  A 0.79 0.77 35.8 0 0 679.50 420.09
  Q 670.96 410.72 662.67 402.34
  Q 655.21 394.80 650.03 388.70
  C 647.83 386.11 645.70 384.86 642.60 384.15
  Q 621.02 379.21 592.34 372.43
  C 588.63 371.55 585.19 370.29 580.73 369.77
  A 0.49 0.49 0.0 0 0 580.19 370.33
  Q 580.46 372.11 581.12 373.12
  A 1.10 1.02 3.1 0 0 581.40 373.41
  L 614.46 396.63
  A 2.02 1.83 67.9 0 0 615.06 396.92
  C 616.89 397.42 619.09 396.23 621.06 396.03
  C 626.66 395.43 629.54 401.65 628.82 405.95
  Q 627.57 413.46 619.47 413.86
  A 3.00 2.82 50.0 0 1 618.46 413.74
  Q 610.87 411.55 610.99 404.19
  A 1.09 1.09 0.0 0 0 610.51 403.27
  L 581.02 383.33
  A 0.29 0.29 0.0 0 0 580.57 383.60
  Z
  M 516.57 458.87
  C 526.36 452.71 537.45 446.71 548.20 440.22
  C 556.93 434.94 564.13 430.54 571.30 424.72
  A 3.10 3.08 -19.6 0 0 572.45 422.32
  L 572.45 400.37
  A 0.56 0.55 -17.7 0 0 571.57 399.92
  Q 567.16 403.08 562.43 405.90
  Q 547.01 415.11 521.70 429.80
  C 520.01 430.78 518.13 431.29 516.47 432.88
  A 1.22 1.21 -21.9 0 0 516.09 433.76
  L 516.09 458.60
  A 0.32 0.31 74.1 0 0 516.57 458.87
  Z
  M 521.43 465.71
  Q 529.11 469.74 541.79 476.97
  Q 542.26 477.24 545.01 477.94
  A 1.66 1.64 37.1 0 0 546.22 477.78
  L 575.11 461.50
  A 0.38 0.37 -35.6 0 0 575.21 460.93
  L 560.00 443.36
  A 0.57 0.56 -35.6 0 0 559.30 443.25
  L 521.42 465.12
  A 0.34 0.34 0.0 0 0 521.43 465.71
  Z
  M 448.66 460.34
  A 0.31 0.31 0.0 0 0 448.73 460.83
  L 479.14 478.38
  A 0.31 0.31 0.0 0 0 479.44 478.39
  L 503.29 465.81
  A 0.31 0.31 0.0 0 0 503.30 465.27
  L 465.03 443.17
  A 0.31 0.31 0.0 0 0 464.65 443.23
  L 448.66 460.34
  Z
  M 507.12 472.89
  L 487.95 483.69
  A 1.99 1.98 74.8 0 0 486.95 485.45
  Q 487.04 489.93 482.80 492.39
  C 475.93 496.37 467.29 491.50 468.74 483.24
  A 0.99 0.98 -63.5 0 0 468.45 482.36
  Q 467.18 481.16 465.65 480.34
  Q 455.85 475.08 443.23 467.86
  A 0.69 0.69 0.0 0 0 442.24 468.23
  Q 440.61 472.90 440.56 478.00
  Q 440.47 486.84 440.85 494.23
  Q 441.00 497.00 442.46 497.86
  Q 448.38 501.37 487.86 522.47
  Q 490.58 523.93 503.57 530.18
  A 2.39 2.30 -32.0 0 0 504.61 530.40
  C 507.16 530.35 507.83 528.15 507.82 525.73
  Q 507.76 506.96 507.84 473.32
  A 0.49 0.48 75.4 0 0 507.12 472.89
  Z
  M 516.13 472.61
  L 516.13 528.02
  A 1.14 1.12 -67.7 0 0 516.46 528.82
  Q 517.95 530.31 519.57 530.74
  A 1.54 1.49 -52.1 0 0 520.70 530.58
  Q 530.45 524.96 546.51 516.74
  Q 558.94 510.38 575.13 501.24
  Q 575.34 501.12 578.58 499.44
  C 581.47 497.93 582.87 496.90 583.04 493.77
  Q 583.62 483.67 583.36 474.83
  Q 583.26 471.37 581.98 468.61
  A 1.20 1.19 -27.2 0 0 580.31 468.08
  L 555.85 481.86
  A 1.52 1.52 0.0 0 0 555.08 483.13
  Q 554.94 486.85 554.61 487.60
  Q 551.72 494.17 545.83 493.62
  C 540.81 493.15 537.28 489.88 537.02 484.74
  A 1.43 1.42 13.7 0 0 536.31 483.58
  L 516.72 472.27
  A 0.39 0.39 0.0 0 0 516.13 472.61
  Z
  M 516.66 583.33
  Q 519.75 581.50 522.54 579.54
  Q 522.73 579.40 542.57 564.80
  Q 551.53 558.21 557.28 552.78
  Q 575.96 535.16 581.84 508.85
  Q 582.09 507.73 582.06 506.94
  A 0.40 0.40 0.0 0 0 581.44 506.62
  Q 577.03 509.62 572.21 512.22
  Q 552.43 522.90 532.14 533.14
  Q 526.30 536.09 522.52 537.27
  A 0.73 0.73 0.0 0 0 522.03 538.11
  Q 523.78 546.60 516.79 550.10
  A 1.25 1.24 77.1 0 0 516.09 551.22
  L 516.09 583.00
  A 0.38 0.38 0.0 0 0 516.66 583.33
  Z
  M 442.57 507.13
  A 0.42 0.42 0.0 0 0 441.88 507.53
  Q 442.96 513.25 445.72 521.54
  C 451.52 538.98 463.08 551.79 478.51 562.97
  Q 494.85 574.80 504.11 580.90
  Q 504.38 581.08 506.92 583.07
  A 0.60 0.60 0.0 0 0 507.89 582.60
  L 507.89 551.42
  A 1.36 1.35 9.3 0 0 506.96 550.14
  C 501.52 548.32 500.66 543.86 500.84 538.87
  A 1.27 1.24 15.0 0 0 500.15 537.71
  Q 469.48 521.99 465.51 519.88
  Q 448.20 510.65 444.22 508.29
  Q 443.23 507.71 442.57 507.13
  Z"
/>
<circle cx="743.17" cy="434.34" r="6.75"/>
<ellipse cx="0.00" cy="0.00" transform="translate(626.43,465.05) rotate(-87.4)" rx="5.08" ry="4.74"/>
<circle cx="702.25" cy="469.16" r="6.24"/>
<ellipse cx="0.00" cy="0.00" transform="translate(662.57,497.90) rotate(-96.5)" rx="8.68" ry="8.40"/>
<circle cx="611.90" cy="533.96" r="5.08"/>
<circle cx="685.92" cy="541.33" r="4.98"/>
<ellipse cx="0.00" cy="0.00" transform="translate(634.06,573.53) rotate(-87.0)" rx="7.20" ry="6.98"/>
</g>
<g fill="#d3af62" fill-opacity="0.992">
<path d="
  M 576.65 349.34
  Q 574.82 354.45 572.08 355.94
  Q 565.92 358.12 559.31 362.05
  Q 556.39 363.78 527.38 380.15
  C 525.70 381.10 523.58 381.79 522.38 382.77
  A 1.06 1.06 0.0 0 0 522.01 383.76
  Q 523.02 390.14 517.31 394.25
  A 2.50 2.47 -70.4 0 1 516.50 394.64
  Q 511.84 395.91 509.03 394.93
  Q 500.73 392.03 501.96 383.12
  A 0.43 0.42 20.7 0 0 501.76 382.70
  Q 478.57 369.06 456.47 357.27
  Q 454.80 356.38 453.24 355.97
  A 0.79 0.78 14.4 0 0 452.27 356.54
  Q 451.73 358.77 451.70 361.01
  Q 451.55 371.77 451.34 388.32
  A 1.83 1.81 -64.3 0 0 451.74 389.49
  Q 452.97 391.06 455.06 392.20
  C 462.76 396.40 470.16 401.23 477.27 405.37
  Q 482.39 408.35 487.51 411.41
  Q 485.08 414.98 484.73 419.11
  L 451.98 399.68
  A 0.44 0.44 0.0 0 0 451.32 400.06
  C 451.45 407.16 450.78 415.41 452.12 423.02
  A 2.03 1.99 21.0 0 0 452.53 423.92
  C 455.00 427.05 458.64 428.78 461.81 431.14
  Q 458.50 434.81 453.51 435.63
  Q 449.69 433.56 446.52 430.48
  C 443.19 427.26 442.84 422.54 443.33 418.16
  A 0.36 0.36 0.0 0 0 442.73 417.85
  Q 433.77 425.53 423.69 431.14
  Q 413.99 436.53 401.37 439.22
  Q 398.22 439.89 394.21 440.10
  C 390.96 440.27 388.16 440.90 384.59 440.90
  Q 379.16 440.90 370.94 440.95
  Q 366.12 440.98 360.61 440.33
  C 352.23 439.35 344.86 438.15 339.76 431.70
  C 338.16 429.67 337.22 427.33 336.02 424.73
  A 0.40 0.40 0.0 0 0 335.50 424.52
  Q 322.48 429.93 319.21 416.72
  A 2.97 2.96 6.3 0 0 317.65 414.78
  Q 303.56 407.81 290.06 398.94
  Q 285.58 395.99 274.88 386.87
  Q 265.80 379.13 258.90 368.83
  C 253.79 361.21 251.57 352.18 254.72 342.95
  C 258.28 332.50 270.86 324.86 281.24 322.00
  Q 294.14 318.43 306.76 319.14
  Q 322.08 320.01 333.78 321.95
  Q 339.67 322.93 358.63 326.82
  C 377.10 330.60 395.58 335.79 414.13 341.64
  Q 422.59 344.30 439.85 350.92
  Q 441.36 351.50 443.94 352.34
  A 0.70 0.70 0.0 0 0 444.74 352.05
  Q 445.84 350.35 447.53 349.02
  Q 461.10 338.32 478.77 325.68
  A 0.50 0.49 46.2 0 0 478.78 324.89
  Q 476.85 323.41 474.58 322.15
  C 470.46 319.88 468.41 318.16 464.47 315.79
  C 458.97 312.48 456.42 308.55 456.49 302.04
  Q 456.56 296.11 456.69 279.09
  Q 456.74 273.34 458.18 270.60
  C 461.60 264.13 467.82 261.22 474.33 257.52
  A 1.38 1.37 64.0 0 0 474.92 255.79
  C 470.73 245.74 465.74 235.88 458.24 228.04
  Q 449.89 219.31 440.25 212.76
  C 435.89 209.80 431.26 207.63 427.35 205.15
  A 1.93 1.92 38.9 0 0 424.96 205.40
  Q 420.18 210.10 413.99 208.56
  C 401.12 205.37 404.03 185.53 417.43 186.17
  Q 422.43 186.40 425.45 190.47
  C 426.65 192.09 427.82 193.76 427.88 195.68
  A 2.08 2.07 10.6 0 0 429.15 197.53
  C 450.93 206.77 470.36 223.61 479.55 245.68
  Q 481.35 250.00 482.35 252.20
  A 0.46 0.46 0.0 0 0 483.01 252.40
  Q 502.79 240.43 503.17 240.22
  C 509.09 237.01 512.29 235.02 518.58 238.63
  Q 530.02 245.19 540.68 251.93
  A 0.86 0.86 0.0 0 0 541.94 251.52
  C 547.63 236.64 556.17 223.78 568.63 213.62
  Q 581.09 203.47 595.74 197.57
  A 1.78 1.77 81.9 0 0 596.85 196.08
  Q 597.21 191.80 600.61 188.81
  C 607.36 182.86 618.00 187.41 618.96 196.37
  Q 619.45 200.97 617.29 204.10
  Q 614.76 207.75 610.44 208.62
  C 605.92 209.52 602.81 208.35 599.67 205.10
  A 1.23 1.22 -34.9 0 0 598.24 204.85
  Q 586.25 210.68 576.57 218.05
  Q 565.42 226.53 557.83 238.17
  C 554.41 243.42 551.95 249.55 549.08 255.57
  A 0.68 0.67 -62.2 0 0 549.34 256.44
  C 555.06 259.86 561.26 263.13 564.43 268.36
  Q 567.04 272.66 566.98 278.47
  Q 566.92 284.84 566.93 304.75
  C 566.94 310.73 562.36 313.66 557.01 317.00
  Q 546.04 323.85 544.94 324.53
  A 0.68 0.67 47.3 0 0 544.90 325.64
  L 576.65 349.34
  Z
  M 545.55 265.35
  L 537.24 291.56
  A 3.16 3.16 0.0 0 1 532.68 293.35
  L 532.41 293.18
  A 5.93 5.92 -65.1 0 1 529.85 286.19
  L 538.41 261.00
  A 0.53 0.53 0.0 0 0 538.20 260.38
  Q 536.17 259.08 515.35 246.47
  C 514.11 245.72 512.84 244.77 511.43 245.58
  Q 501.06 251.54 488.79 259.03
  Q 487.65 259.73 486.49 260.18
  A 1.08 1.08 0.0 0 0 485.86 261.54
  L 494.92 287.40
  A 4.41 4.41 0.0 0 1 492.22 293.01
  L 491.70 293.19
  A 3.74 3.74 0.0 0 1 486.90 290.80
  L 478.78 265.37
  A 0.75 0.75 0.0 0 0 477.57 265.03
  C 474.91 267.30 469.32 269.73 466.25 273.35
  A 3.88 3.87 65.4 0 0 465.31 275.88
  L 465.31 304.49
  A 3.56 3.55 -74.2 0 0 466.99 307.51
  L 511.42 334.92
  A 0.95 0.94 -44.2 0 0 512.41 334.93
  L 557.48 307.18
  A 1.50 1.49 -15.0 0 0 558.18 305.97
  Q 558.66 291.68 558.15 276.32
  C 558.04 272.94 556.60 271.50 554.15 269.78
  Q 551.77 268.11 546.53 264.98
  A 0.67 0.67 0.0 0 0 545.55 265.35
  Z
  M 441.93 361.99
  A 0.25 0.25 0.0 0 0 442.07 361.54
  C 438.60 359.06 434.98 357.91 430.94 356.40
  Q 414.89 350.41 398.60 345.42
  Q 390.44 342.92 384.43 341.45
  Q 384.22 341.40 383.18 341.11
  Q 360.64 334.74 331.01 329.98
  Q 313.39 327.14 301.76 327.40
  Q 286.44 327.74 273.24 333.89
  A 0.59 0.59 0.0 0 0 273.06 334.84
  L 295.33 357.83
  A 1.67 1.64 67.4 0 0 296.51 358.33
  L 337.41 358.33
  A 1.15 1.14 -80.3 0 0 338.49 357.56
  Q 340.74 351.14 346.66 349.49
  C 352.38 347.90 358.04 351.62 359.73 357.15
  Q 360.72 360.38 358.79 364.69
  A 0.86 0.86 0.0 0 0 359.03 365.71
  L 373.28 377.27
  A 1.99 1.98 -32.4 0 0 374.99 377.65
  Q 428.22 364.86 438.56 362.34
  Q 439.92 362.01 441.93 361.99
  Z
  M 563.74 349.87
  L 537.50 330.07
  A 1.19 1.19 0.0 0 0 536.15 330.00
  L 514.32 343.45
  A 3.36 3.31 -59.5 0 1 512.53 343.93
  Q 510.52 343.88 508.54 342.71
  Q 499.41 337.32 486.89 329.39
  A 0.66 0.65 38.8 0 0 486.10 329.47
  Q 482.87 332.57 481.44 333.68
  Q 471.26 341.60 460.62 349.36
  A 0.38 0.37 -48.9 0 0 460.66 349.99
  L 506.21 375.24
  A 1.48 1.46 -42.9 0 0 507.56 375.28
  Q 511.84 373.24 516.90 375.86
  A 1.59 1.59 0.0 0 0 518.43 375.84
  L 563.71 350.32
  A 0.27 0.27 0.0 0 0 563.74 349.87
  Z
  M 340.39 412.71
  L 366.75 384.51
  A 1.26 1.25 -47.1 0 0 366.69 382.74
  L 353.85 370.74
  A 1.11 1.10 -32.5 0 0 352.74 370.50
  C 347.55 372.25 343.32 369.96 340.01 366.32
  A 1.09 1.07 -20.9 0 0 339.21 365.97
  Q 315.94 366.25 296.01 366.08
  C 291.74 366.04 289.20 362.90 285.75 359.50
  Q 284.46 358.23 266.51 340.08
  A 0.50 0.49 41.4 0 0 265.77 340.12
  C 247.55 363.60 296.25 394.17 311.99 402.65
  C 315.22 404.40 319.66 405.95 322.27 407.68
  A 0.79 0.78 44.5 0 0 323.14 407.68
  Q 326.53 405.33 327.88 405.15
  Q 336.30 403.98 339.37 412.50
  A 0.61 0.61 0.0 0 0 340.39 412.71
  Z
  M 366.70 432.87
  Q 367.31 433.39 367.76 432.89
  Q 368.30 432.88 368.44 433.15
  L 382.98 433.15
  C 385.10 433.00 387.34 433.05 389.34 432.72
  Q 394.86 431.82 401.93 430.68
  Q 404.79 430.22 412.30 427.41
  Q 416.58 425.80 421.02 423.15
  Q 428.67 418.56 429.29 418.05
  Q 435.14 413.22 442.23 407.98
  A 1.74 1.73 74.0 0 0 442.92 406.72
  L 443.18 403.04
  L 443.14 389.44
  L 443.10 382.34
  A 0.53 0.53 0.0 0 0 442.23 381.94
  Q 437.49 386.10 433.66 388.65
  Q 423.79 395.23 413.01 402.49
  A 1.94 1.94 0.0 0 0 412.16 404.22
  C 412.78 413.77 400.89 416.84 395.75 409.05
  Q 394.00 406.40 394.50 403.98
  Q 396.71 393.49 407.03 396.87
  A 0.86 0.84 -55.8 0 0 407.83 396.71
  Q 409.08 395.66 409.30 395.42
  A 4.22 4.14 3.9 0 1 410.06 394.77
  Q 423.83 385.49 442.05 372.31
  Q 443.34 371.38 443.08 369.97
  A 0.50 0.49 78.5 0 0 442.48 369.57
  Q 428.63 372.90 417.68 375.56
  Q 411.31 377.12 410.85 377.23
  Q 389.80 382.35 387.98 382.61
  C 384.87 383.06 382.38 384.04 378.39 385.13
  C 375.97 385.79 375.03 388.05 373.53 389.59
  Q 359.56 403.85 347.27 417.09
  C 346.28 418.17 344.93 419.13 343.68 420.21
  A 0.76 0.75 60.4 0 0 343.46 421.02
  Q 346.03 428.92 353.75 430.71
  Q 359.31 431.99 366.70 432.87
  Z"
/>
<circle cx="349.66" cy="225.52" r="6.57"/>
<circle cx="665.51" cy="236.50" r="6.62"/>
<circle cx="386.94" cy="261.04" r="9.10"/>
<ellipse cx="0.00" cy="0.00" transform="translate(624.34,260.79) rotate(-85.6)" rx="8.06" ry="7.78"/>
<rect x="-6.93" y="-6.95" transform="translate(302.15,276.19) rotate(10.3)" width="13.86" height="13.90" rx="6.21"/>
<circle cx="357.94" cy="296.58" r="6.30"/>
<ellipse cx="0.00" cy="0.00" transform="translate(416.91,296.68) rotate(-12.3)" rx="5.06" ry="4.89"/>
<ellipse cx="0.00" cy="0.00" transform="translate(608.13,304.52) rotate(-99.4)" rx="5.44" ry="5.22"/>
<ellipse cx="0.00" cy="0.00" transform="translate(286.92,444.78) rotate(-168.0)" rx="8.43" ry="8.22"/>
<ellipse cx="0.00" cy="0.00" transform="translate(405.60,458.20) rotate(-136.7)" rx="4.88" ry="4.62"/>
<circle cx="373.89" cy="469.13" r="6.19"/>
<circle cx="326.09" cy="487.07" r="6.18"/>
<circle cx="392.78" cy="518.41" r="8.46"/>
<circle cx="350.55" cy="542.27" r="5.20"/>
<circle cx="416.25" cy="573.21" r="5.22"/>
</g>
<g stroke-width="2.00" fill="none" stroke-linecap="butt">
<path stroke="#c39f57" stroke-opacity="0.992" d="
  M 366.70 432.87
  Q 367.31 433.39 367.76 432.89"
/>
<path stroke="#c39f57" stroke-opacity="0.992" d="
  M 368.44 433.15
  L 382.98 433.15"
/>
<path stroke="#c39f57" stroke-opacity="0.992" d="
  M 443.18 403.04
  L 443.14 389.44"
/>
</g>
<g fill="#b28f4b" fill-opacity="0.992">
<path d="
  M 443.18 403.04
  L 443.14 389.44
  L 443.18 403.04
  Z"
/>
<path d="
  M 367.76 432.89
  Q 367.31 433.39 366.70 432.87
  L 367.76 432.89
  Z"
/>
<path d="
  M 382.98 433.15
  L 368.44 433.15
  L 382.98 433.15
  Z"
/>
</g>
</svg>
