<svg xmlns="http://www.w3.org/2000/svg" viewBox="0 0 1024 665"><g fill="none" stroke="#b28f4b" stroke-opacity=".992"><ellipse rx="8.58" ry="8.3" transform="rotate(-86.3 502.886 -240.989)" vector-effect="non-scaling-stroke"/><circle cx="663.36" cy="295.72" r="5.46" vector-effect="non-scaling-stroke"/><path d="M453.51 435.63q4.99-.82 8.3-4.49l43.24 25.64c.2.12.39.26.56.41l1.58 1.35c.24.21.62.04.62-.28V433.8c0-.68-.36-1.3-.94-1.64l-22.14-13.05q.35-4.13 2.78-7.7l23.55 13.75c.35.21.7.3.98.27q1-.13 4.98-2.43 28.65-16.51 55.01-32.36c.37-.22.6-.63.59-1.06l-.54-33.64q2.74-1.49 4.57-6.6 1.84 1.44 3.04 3.26c.14.22.44.26.64.09q1.11-.94 1.7-1.18 35.65-14.5 73.42-23.04 13.24-3 22.79-4.97 20.33-4.18 40.32-4.46 8.62-.12 15.7 1.11c13.01 2.26 26.85 7.43 33.12 19.9 8.3 16.5-1.85 31.79-13.76 42.81q-8.84 8.19-15.75 12.99-16.23 11.3-32.83 19.03c-.61.28-.83.22-1.34.36-.31.09-.56.33-.63.64-2.03 8.08-7.1 12.21-15.53 9.52a.556.556 0 0 0-.66.28c-5.72 11.57-16.28 14.29-28.36 15.09q-11.64.78-25.02-.16-14.79-1.05-27.31-6.63-6.65-2.97-14.75-8.18-2.96-1.9-5-3.81-1.78-1.65-5.09-3.85c-.19-.13-.44.01-.45.24q-.11 4.54-.24 5.63c-.72 5.99-8.71 10.79-13.71 13.48a.45.45 0 0 0-.13.69l21.96 25.34c.09.11.16.22.22.34.81 1.56 1.65 3.16 1.99 4.75 1.17 5.39.94 10.33.93 16.55q-.01 19.08-4.41 34.16-6.63 22.74-25.14 39.79-.32.3-9.01 7.51-4.69 3.89-9.31 7.13-16.85 11.81-26.03 17.79-1.97 1.28-1.94 3.56.1 7.12-.07 14.14a4.06 4.06 0 0 1-4.21 3.97h-.27a3.82 3.82 0 0 1-3.77-3.85l.12-16.09c0-.35-.18-.68-.47-.87-19.15-12.39-32.26-21.16-45.6-32.39q-4.84-4.06-10.42-11.01c-10.12-12.59-15.79-28.57-17.89-44.74q-2.19-16.97-1.25-33.01.1-1.73 1.73-5.88c.28-.73.69-1.4 1.21-1.98l22.04-24.81c.34-.38.15-.99-.35-1.1q-1.77-.4-3.37-1.85Zm127.29-73.99 68.67 15.76c.13.03.27.02.39-.03q1.68-.67 3.28-2 6.36-5.25 11.49-10.35c.24-.23.32-.58.2-.9q-2.01-5.63 1.3-10.61c2.1-3.16 6.18-4.86 9.64-4.3q7.15 1.17 9.33 8.58c.08.27.33.45.61.45h40.31c.93 0 1.82-.37 2.48-1.03l21.75-21.75c.31-.31.27-.83-.08-1.09q-1.55-1.17-3.51-2.01c-10.41-4.44-20.88-5.16-33.51-4.73q-9.24.31-13.19.81-12.2 1.56-28.1 4.9-6.67 1.4-9.43 1.95-7.84 1.55-23.29 5.67-11.58 3.09-22.95 6.86-20.1 6.66-35.47 12.91c-.43.18-.38.8.08.91Zm175.91-21.12q-12.91 13.43-23.11 23.19c-2.07 1.98-3.34 2.34-6.08 2.35q-41.61.09-42.44.02a2.48 2.48 0 0 0-2.29 1.13q-3.25 5.06-10.49 3.64c-.82-.16-1.67.06-2.3.61l-13.5 11.7c-.22.18-.23.51-.04.71q16.1 16.58 25.25 26.38.35.37.35.56 0 .47.09.55c.25.22.63.17.8-.11q6.4-10.33 16.81-3.26c.54.37 1.25.41 1.83.1q14.74-7.74 29.08-17.17 9.47-6.23 17.83-14.06c2.63-2.47 6.29-6.88 8-9.35 5.73-8.32 8.58-18.73 1.01-26.98a.55.55 0 0 0-.8-.01ZM580.57 383.6q.61 6.85.28 20.05-.05 1.86.45 3.83c.1.4.35.74.68.97 6.09 4.16 13.33 10.56 20.96 14.67q9.37 5.04 16.61 6.79 11.96 2.91 19.22 3.09 12.28.32 19.23-.31c9.16-.84 17.6-2.28 21.65-11.76a.79.79 0 0 0-.15-.84q-8.54-9.37-16.83-17.75-7.46-7.54-12.64-13.64c-2.2-2.59-4.33-3.84-7.43-4.55q-21.58-4.94-50.26-11.72c-3.71-.88-7.15-2.14-11.61-2.66a.488.488 0 0 0-.54.56q.27 1.78.93 2.79c.07.11.17.21.28.29l33.06 23.22c.19.13.39.23.6.29 1.83.5 4.03-.69 6-.89 5.6-.6 8.48 5.62 7.76 9.92q-1.25 7.51-9.35 7.91c-.34.02-.68-.02-1.01-.12q-7.59-2.19-7.47-9.55c.01-.37-.17-.71-.48-.92l-29.49-19.94c-.2-.14-.47.02-.45.27Zm-64 75.27c9.79-6.16 20.88-12.16 31.63-18.65 8.73-5.28 15.93-9.68 23.1-15.5.73-.59 1.15-1.47 1.15-2.4v-21.95c0-.45-.51-.71-.88-.45q-4.41 3.16-9.14 5.98-15.42 9.21-40.73 23.9c-1.69.98-3.57 1.49-5.23 3.08-.24.23-.38.55-.38.88v24.84c0 .25.27.4.48.27Zm4.86 6.84q7.68 4.03 20.36 11.26.47.27 3.22.97c.41.1.84.05 1.21-.16l28.89-16.28c.21-.12.25-.39.1-.57L560 443.36a.56.56 0 0 0-.7-.11l-37.88 21.87c-.23.13-.22.46.01.59Zm-72.77-5.37c-.14.15-.1.39.07.49l30.41 17.55c.09.06.21.06.3.01l23.85-12.58c.22-.11.22-.42.01-.54l-38.27-22.1a.31.31 0 0 0-.38.06zm58.46 12.55-19.17 10.8c-.63.36-1.01 1.03-1 1.76q.09 4.48-4.15 6.94c-6.87 3.98-15.51-.89-14.06-9.15a.96.96 0 0 0-.29-.88q-1.27-1.2-2.8-2.02-9.8-5.26-22.42-12.48a.687.687 0 0 0-.99.37q-1.63 4.67-1.68 9.77-.09 8.84.29 16.23.15 2.77 1.61 3.63 5.92 3.51 45.4 24.61 2.72 1.46 15.71 7.71c.32.15.68.23 1.04.22 2.55-.05 3.22-2.25 3.21-4.67q-.06-18.77.02-52.41c0-.37-.4-.61-.72-.43Zm9.01-.28v55.41c0 .3.12.59.33.8q1.49 1.49 3.11 1.92c.38.1.78.04 1.13-.16q9.75-5.62 25.81-13.84 12.43-6.36 28.62-15.5.21-.12 3.45-1.8c2.89-1.51 4.29-2.54 4.46-5.67q.58-10.1.32-18.94-.1-3.46-1.38-6.22c-.29-.63-1.06-.87-1.67-.53l-24.46 13.78c-.46.26-.75.74-.77 1.27q-.14 3.72-.47 4.47-2.89 6.57-8.78 6.02c-5.02-.47-8.55-3.74-8.81-8.88a1.41 1.41 0 0 0-.71-1.16l-19.59-11.31a.395.395 0 0 0-.59.34Zm.53 110.72q3.09-1.83 5.88-3.79l20.03-14.74q8.96-6.59 14.71-12.02 18.68-17.62 24.56-43.93.25-1.12.22-1.91c-.01-.32-.36-.5-.62-.32q-4.41 3-9.23 5.6-19.78 10.68-40.07 20.92-5.84 2.95-9.62 4.13c-.35.11-.56.48-.49.84q1.75 8.49-5.24 11.99c-.43.21-.7.64-.7 1.12V583c0 .29.32.48.57.33Zm-74.09-76.2c-.3-.27-.76 0-.69.4q1.08 5.72 3.84 14.01c5.8 17.44 17.36 30.25 32.79 41.43q16.34 11.83 25.6 17.93.27.18 2.81 2.17c.4.31.97.03.97-.47v-31.18c0-.58-.37-1.09-.93-1.28-5.44-1.82-6.3-6.28-6.12-11.27.02-.48-.25-.93-.69-1.16q-30.67-15.72-34.64-17.83-17.31-9.23-21.29-11.59-.99-.58-1.65-1.16Z" vector-effect="non-scaling-stroke"/><circle cx="743.17" cy="434.34" r="6.75" vector-effect="non-scaling-stroke"/><ellipse rx="5.08" ry="4.74" transform="rotate(-87.4 556.539 -95.236)" vector-effect="non-scaling-stroke"/><circle cx="702.25" cy="469.16" r="6.24" vector-effect="non-scaling-stroke"/><ellipse rx="8.68" ry="8.4" transform="rotate(-96.5 553.481 -46.733)" vector-effect="non-scaling-stroke"/><circle cx="611.9" cy="533.96" r="5.08" vector-effect="non-scaling-stroke"/><circle cx="685.92" cy="541.33" r="4.98" vector-effect="non-scaling-stroke"/><ellipse rx="7.2" ry="6.98" transform="rotate(-87 619.217 -47.315)" vector-effect="non-scaling-stroke"/></g><g fill="none" stroke="#d3af62" stroke-opacity=".992"><path d="M576.65 349.34q-1.83 5.11-4.57 6.6-6.16 2.18-12.77 6.11-2.92 1.73-31.93 18.1c-1.68.95-3.8 1.64-5 2.62-.29.24-.43.62-.37.99q1.01 6.38-4.7 10.49c-.24.18-.52.31-.81.39q-4.66 1.27-7.47.29-8.3-2.9-7.07-11.81a.43.43 0 0 0-.2-.42q-23.19-13.64-45.29-25.43-1.67-.89-3.23-1.3a.78.78 0 0 0-.97.57q-.54 2.23-.57 4.47-.15 10.76-.36 27.31c-.01.43.14.84.4 1.17q1.23 1.57 3.32 2.71c7.7 4.2 15.1 9.03 22.21 13.17q5.12 2.98 10.24 6.04-2.43 3.57-2.78 7.7l-32.75-19.43a.44.44 0 0 0-.66.38c.13 7.1-.54 15.35.8 22.96a2 2 0 0 0 .41.9c2.47 3.13 6.11 4.86 9.28 7.22q-3.31 3.67-8.3 4.49-3.82-2.07-6.99-5.15c-3.33-3.22-3.68-7.94-3.19-12.32.04-.33-.35-.53-.6-.31q-8.96 7.68-19.04 13.29-9.7 5.39-22.32 8.08-3.15.67-7.16.88c-3.25.17-6.05.8-9.62.8q-5.43 0-13.65.05-4.82.03-10.33-.62c-8.38-.98-15.75-2.18-20.85-8.63-1.6-2.03-2.54-4.37-3.74-6.97a.405.405 0 0 0-.52-.21q-13.02 5.41-16.29-7.8a2.98 2.98 0 0 0-1.56-1.94q-14.09-6.97-27.59-15.84-4.48-2.95-15.18-12.07-9.08-7.74-15.98-18.04c-5.11-7.62-7.33-16.65-4.18-25.88 3.56-10.45 16.14-18.09 26.52-20.95q12.9-3.57 25.52-2.86 15.32.87 27.02 2.81 5.89.98 24.85 4.87c18.47 3.78 36.95 8.97 55.5 14.82q8.46 2.66 25.72 9.28 1.51.58 4.09 1.42c.3.09.63-.02.8-.29q1.1-1.7 2.79-3.03 13.57-10.7 31.24-23.34c.27-.19.27-.58.01-.79q-1.93-1.48-4.2-2.74c-4.12-2.27-6.17-3.99-10.11-6.36-5.5-3.31-8.05-7.24-7.98-13.75q.07-5.93.2-22.95.05-5.75 1.49-8.49c3.42-6.47 9.64-9.38 16.15-13.08.61-.34.86-1.09.59-1.73-4.19-10.05-9.18-19.91-16.68-27.75q-8.35-8.73-17.99-15.28c-4.36-2.96-8.99-5.13-12.9-7.61a1.92 1.92 0 0 0-2.39.25q-4.78 4.7-10.97 3.16c-12.87-3.19-9.96-23.03 3.44-22.39q5 .23 8.02 4.3c1.2 1.62 2.37 3.29 2.43 5.21.02.81.52 1.53 1.27 1.85 21.78 9.24 41.21 26.08 50.4 48.15q1.8 4.32 2.8 6.52c.12.25.43.34.66.2q19.78-11.97 20.16-12.18c5.92-3.21 9.12-5.2 15.41-1.59q11.44 6.56 22.1 13.3a.86.86 0 0 0 1.26-.41c5.69-14.88 14.23-27.74 26.69-37.9q12.46-10.15 27.11-16.05c.62-.25 1.05-.82 1.11-1.49q.36-4.28 3.76-7.27c6.75-5.95 17.39-1.4 18.35 7.56q.49 4.6-1.67 7.73-2.53 3.65-6.85 4.52c-4.52.9-7.63-.27-10.77-3.52-.37-.39-.95-.49-1.43-.25q-11.99 5.83-21.67 13.2-11.15 8.48-18.74 20.12c-3.42 5.25-5.88 11.38-8.75 17.4-.15.32-.04.69.26.87 5.72 3.42 11.92 6.69 15.09 11.92q2.61 4.3 2.55 10.11-.06 6.37-.05 26.28c.01 5.98-4.57 8.91-9.92 12.25q-10.97 6.85-12.07 7.53c-.4.25-.42.83-.04 1.11zm-31.1-83.99-8.31 26.21c-.61 1.91-2.82 2.78-4.56 1.79l-.27-.17a5.93 5.93 0 0 1-2.56-6.99l8.56-25.19c.08-.23 0-.49-.21-.62q-2.03-1.3-22.85-13.91c-1.24-.75-2.51-1.7-3.92-.89q-10.37 5.96-22.64 13.45-1.14.7-2.3 1.15c-.54.21-.82.81-.63 1.36l9.06 25.86c.8 2.29-.41 4.8-2.7 5.61l-.52.18c-1.99.7-4.16-.38-4.8-2.39l-8.12-25.43a.757.757 0 0 0-1.21-.34c-2.66 2.27-8.25 4.7-11.32 8.32-.61.7-.94 1.6-.94 2.53v28.61c0 1.23.64 2.37 1.68 3.02l44.43 27.41c.3.19.68.19.99.01l45.07-27.75c.42-.26.68-.72.7-1.21q.48-14.29-.03-29.65c-.11-3.38-1.55-4.82-4-6.54q-2.38-1.67-7.62-4.8a.67.67 0 0 0-.98.37Zm-103.62 96.64c.24 0 .33-.31.14-.45-3.47-2.48-7.09-3.63-11.13-5.14q-16.05-5.99-32.34-10.98-8.16-2.5-14.17-3.97-.21-.05-1.25-.34-22.54-6.37-52.17-11.13-17.62-2.84-29.25-2.58-15.32.34-28.52 6.49c-.37.17-.46.66-.18.95l22.27 22.99c.31.32.74.5 1.18.5h40.9c.49 0 .92-.31 1.08-.77q2.25-6.42 8.17-8.07c5.72-1.59 11.38 2.13 13.07 7.66q.99 3.23-.94 7.54c-.16.35-.06.77.24 1.02l14.25 11.56c.48.38 1.11.53 1.71.38q53.23-12.79 63.57-15.31 1.36-.33 3.37-.35Zm121.81-12.12-26.24-19.8c-.39-.3-.93-.33-1.35-.07l-21.83 13.45c-.54.33-1.16.49-1.79.48q-2.01-.05-3.99-1.22-9.13-5.39-21.65-13.32a.66.66 0 0 0-.79.08q-3.23 3.1-4.66 4.21-10.18 7.92-20.82 15.68c-.22.16-.2.5.04.63l45.55 25.25c.41.23.92.25 1.35.04q4.28-2.04 9.34.58c.48.26 1.06.25 1.53-.02l45.28-25.52c.17-.09.19-.33.03-.45Zm-223.35 62.84 26.36-28.2c.47-.51.44-1.3-.06-1.77l-12.84-12c-.3-.28-.72-.37-1.11-.24-5.19 1.75-9.42-.54-12.73-4.18-.2-.22-.49-.35-.8-.35q-23.27.28-43.2.11c-4.27-.04-6.81-3.18-10.26-6.58q-1.29-1.27-19.24-19.42a.5.5 0 0 0-.74.04c-18.22 23.48 30.48 54.05 46.22 62.53 3.23 1.75 7.67 3.3 10.28 5.03.27.18.61.18.87 0q3.39-2.35 4.74-2.53 8.42-1.17 11.49 7.35c.16.43.71.54 1.02.21Zm26.31 20.16q.61.52 1.06.02.54-.01.68.26h14.54c2.12-.15 4.36-.1 6.36-.43q5.52-.9 12.59-2.04 2.86-.46 10.37-3.27 4.28-1.61 8.72-4.26 7.65-4.59 8.27-5.1 5.85-4.83 12.94-10.07c.4-.3.65-.76.69-1.26l.26-3.68-.04-13.6-.04-7.1c0-.45-.53-.69-.87-.4q-4.74 4.16-8.57 6.71-9.87 6.58-20.65 13.84c-.57.38-.89 1.04-.85 1.73.62 9.55-11.27 12.62-16.41 4.83q-1.75-2.65-1.25-5.07 2.21-10.49 12.53-7.11c.27.09.58.03.8-.16q1.25-1.05 1.47-1.29c.23-.25.48-.46.76-.65q13.77-9.28 31.99-22.46 1.29-.93 1.03-2.34a.49.49 0 0 0-.6-.4q-13.85 3.33-24.8 5.99-6.37 1.56-6.83 1.67-21.05 5.12-22.87 5.38c-3.11.45-5.6 1.43-9.59 2.52-2.42.66-3.36 2.92-4.86 4.46q-13.97 14.26-26.26 27.5c-.99 1.08-2.34 2.04-3.59 3.12a.75.75 0 0 0-.22.81q2.57 7.9 10.29 9.69 5.56 1.28 12.95 2.16Z" vector-effect="non-scaling-stroke"/><circle cx="349.66" cy="225.52" r="6.57" vector-effect="non-scaling-stroke"/><circle cx="665.51" cy="236.5" r="6.62" vector-effect="non-scaling-stroke"/><circle cx="386.94" cy="261.04" r="9.1" vector-effect="non-scaling-stroke"/><ellipse rx="8.06" ry="7.78" transform="rotate(-85.6 452.984 -206.718)" vector-effect="non-scaling-stroke"/><rect width="13.86" height="13.9" x="-6.93" y="-6.95" rx="6.21" transform="rotate(10.3 -1381.147 1814.335)" vector-effect="non-scaling-stroke"/><circle cx="357.94" cy="296.58" r="6.3" vector-effect="non-scaling-stroke"/><ellipse rx="5.06" ry="4.89" transform="rotate(-12.3 1585.136 -1786.243)" vector-effect="non-scaling-stroke"/><ellipse rx="5.44" ry="5.22" transform="rotate(-99.4 433.19 -105.606)" vector-effect="non-scaling-stroke"/><ellipse rx="8.43" ry="8.22" transform="rotate(192 166.834 207.312)" vector-effect="non-scaling-stroke"/><ellipse rx="4.88" ry="4.62" transform="rotate(223.3 293.738 148.601)" vector-effect="non-scaling-stroke"/><circle cx="373.89" cy="469.13" r="6.19" vector-effect="non-scaling-stroke"/><circle cx="326.09" cy="487.07" r="6.18" vector-effect="non-scaling-stroke"/><circle cx="392.78" cy="518.41" r="8.46" vector-effect="non-scaling-stroke"/><circle cx="350.55" cy="542.27" r="5.2" vector-effect="non-scaling-stroke"/><circle cx="416.25" cy="573.21" r="5.22" vector-effect="non-scaling-stroke"/></g><g fill="none" stroke="#b28f4b" stroke-opacity=".992"><path d="m443.18 403.04-.04-13.6zM367.76 432.89q-.45.5-1.06-.02zM382.98 433.15h-14.54z" vector-effect="non-scaling-stroke"/></g></svg>