<?xml version="1.0" encoding="UTF-8" standalone="no"?>
<!DOCTYPE svg PUBLIC "-//W3C//DTD SVG 1.1//EN" "http://www.w3.org/Graphics/SVG/1.1/DTD/svg11.dtd">
<svg xmlns="http://www.w3.org/2000/svg" version="1.1" viewBox="0.00 0.00 612.00 408.00">
<g stroke-width="2.00" fill="none" stroke-linecap="butt">
<path stroke="#8c6526" stroke-opacity="0.604" d="
  M 465.19 122.84
  L 442.36 152.23
  A 0.46 0.46 0.0 0 0 442.65 152.96
  L 453.28 154.72"
/>
<path stroke="#8c6526" stroke-opacity="0.604" d="
  M 515.67 148.40
  C 499.64 157.67 482.55 160.29 464.20 158.55"
/>
<path stroke="#8c6526" stroke-opacity="0.604" d="
  M 455.96 157.70
  L 440.61 155.70
  A 1.25 1.24 -58.9 0 0 439.70 155.93
  Q 437.83 157.32 436.55 159.65"
/>
<path stroke="#8c6526" stroke-opacity="0.604" d="
  M 435.35 160.83
  Q 421.15 179.70 409.89 199.36"
/>
<path stroke="#8c6526" stroke-opacity="0.604" d="
  M 404.66 211.00
  Q 403.44 211.00 402.55 210.68"
/>
<path stroke="#8c6526" stroke-opacity="0.604" d="
  M 404.70 203.66
  L 412.78 189.37
  A 0.21 0.21 0.0 0 0 412.49 189.08
  Q 408.00 191.87 401.38 195.62
  C 397.63 197.74 391.06 200.80 386.87 199.14
  C 382.21 197.29 383.30 193.19 384.28 189.27
  A 0.44 0.44 0.0 0 0 383.56 188.84
  Q 377.77 194.15 371.67 196.38
  A 2.43 2.36 37.5 0 1 370.55 196.51
  Q 366.44 196.01 367.33 191.63
  A 0.45 0.38 66.8 0 1 367.37 191.50
  L 368.53 189.14
  A 0.41 0.41 0.0 0 0 367.95 188.61
  Q 357.50 195.00 349.00 198.24
  C 341.91 200.93 330.36 203.61 332.12 191.17
  A 0.56 0.55 76.2 0 0 331.25 190.64
  C 326.13 194.31 320.77 198.41 315.02 199.75
  C 310.45 200.82 305.57 198.94 305.91 193.52
  Q 306.06 191.16 306.02 190.63
  A 0.36 0.36 0.0 0 0 305.46 190.35
  C 301.23 193.13 298.02 196.96 292.33 197.63"
/>
<path stroke="#8c6526" stroke-opacity="0.604" d="
  M 289.64 194.07
  Q 290.23 190.99 292.31 188.05
  A 0.23 0.23 0.0 0 0 292.12 187.69
  L 282.42 187.85"
/>
<path stroke="#8c6526" stroke-opacity="0.604" d="
  M 277.77 189.91
  Q 272.37 196.93 265.58 200.86"
/>
<path stroke="#8c6526" stroke-opacity="0.604" d="
  M 271.83 180.71
  Q 267.53 188.41 264.73 197.00
  A 0.62 0.62 0.0 0 0 265.55 197.77
  L 265.98 197.60
  A 1.30 1.22 13.2 0 0 266.24 197.45
  Q 272.95 192.40 278.44 184.77"
/>
<path stroke="#8c6526" stroke-opacity="0.604" d="
  M 309.53 180.42
  Q 310.42 182.04 311.82 181.56
  A 1.03 1.01 -82.5 0 1 312.98 183.11
  Q 310.19 187.34 308.68 191.86
  C 306.87 197.25 312.10 198.24 315.82 196.94"
/>
<path stroke="#8c6526" stroke-opacity="0.604" d="
  M 347.46 180.47
  Q 348.20 181.66 347.58 183.16
  A 1.38 1.33 46.7 0 1 345.06 183.03
  Q 344.86 182.48 344.72 182.26
  A 1.54 1.54 0.0 0 0 342.81 181.71
  Q 335.65 184.91 334.53 192.48
  C 333.62 198.68 339.60 198.21 343.84 197.26"
/>
<path stroke="#8c6526" stroke-opacity="0.604" d="
  M 387.24 180.32
  L 387.94 181.04
  A 0.89 0.88 -35.4 0 0 388.97 181.21
  Q 389.83 180.78 390.62 181.15
  A 0.86 0.85 28.5 0 1 390.99 182.38
  C 388.47 186.37 386.57 189.01 385.94 193.67
  A 2.81 2.71 -72.4 0 0 387.34 196.50
  Q 389.58 197.70 392.69 196.54"
/>
<path stroke="#8c6526" stroke-opacity="0.604" d="
  M 431.51 161.49
  L 435.91 155.78
  A 0.40 0.40 0.0 0 0 435.66 155.14
  L 419.07 152.50"
/>
<path stroke="#8c6526" stroke-opacity="0.604" d="
  M 435.55 175.04
  L 434.56 174.96"
/>
<path stroke="#8c6526" stroke-opacity="0.604" d="
  M 125.30 158.34
  L 118.92 161.39
  A 1.27 1.20 6.8 0 0 118.57 161.65
  Q 116.39 164.00 115.22 167.02
  Q 104.34 195.07 93.78 223.21"
/>
<path stroke="#8c6526" stroke-opacity="0.604" d="
  M 92.49 226.78
  Q 92.01 227.29 92.07 228.04"
/>
<path stroke="#8c6526" stroke-opacity="0.604" d="
  M 91.51 229.47
  L 89.81 234.04"
/>
<path stroke="#8c6526" stroke-opacity="0.604" d="
  M 75.74 158.52
  Q 72.84 160.28 69.83 160.69
  C 67.76 160.98 66.41 162.49 67.20 164.47
  Q 78.46 192.76 90.36 221.18
  A 0.49 0.49 0.0 0 0 91.27 221.16
  L 93.52 214.86"
/>
<path stroke="#8c6526" stroke-opacity="0.604" d="
  M 110.72 168.01
  Q 112.11 163.11 107.72 161.05"
/>
<path stroke="#8c6526" stroke-opacity="0.604" d="
  M 152.73 160.48
  Q 152.05 160.57 152.11 160.78"
/>
<path stroke="#8c6526" stroke-opacity="0.604" d="
  M 148.45 183.27
  Q 148.03 216.89 148.49 231.50
  Q 148.68 237.51 155.28 237.25"
/>
<path stroke="#8c6526" stroke-opacity="0.604" d="
  M 185.66 239.52
  L 139.45 239.48"
/>
<path stroke="#8c6526" stroke-opacity="0.604" d="
  M 134.18 239.42
  L 130.07 239.36"
/>
<path stroke="#8c6526" stroke-opacity="0.604" d="
  M 137.11 165.99
  Q 137.30 162.28 134.28 160.63"
/>
<path stroke="#8c6526" stroke-opacity="0.604" d="
  M 465.52 176.70
  C 467.21 179.59 466.54 183.13 465.61 186.06
  A 0.79 0.78 8.9 0 0 466.36 187.08
  Q 472.47 187.05 478.05 185.57"
/>
<path stroke="#8c6526" stroke-opacity="0.604" d="
  M 486.85 179.10
  Q 486.89 182.98 483.91 186.77
  Q 483.74 186.99 483.86 187.22
  A 0.28 0.28 0.0 0 0 484.30 187.29
  C 486.25 185.44 493.15 179.53 495.36 183.67
  C 496.46 185.73 496.30 188.59 497.17 190.60
  Q 499.12 195.05 505.00 192.87"
/>
<path stroke="#8c6526" stroke-opacity="0.604" d="
  M 513.14 191.44
  Q 513.13 191.60 512.84 191.69"
/>
<path stroke="#8c6526" stroke-opacity="0.604" d="
  M 508.63 194.13
  Q 504.94 195.79 500.96 196.18"
/>
<path stroke="#8c6526" stroke-opacity="0.604" d="
  M 495.02 192.14
  L 493.55 185.79
  A 1.22 1.21 67.5 0 0 491.73 185.03
  C 486.26 188.42 482.20 193.15 477.90 197.75"
/>
<path stroke="#8c6526" stroke-opacity="0.604" d="
  M 475.70 196.67
  L 479.86 188.25
  A 0.32 0.32 0.0 0 0 479.49 187.80
  Q 472.29 189.91 464.75 189.60
  A 1.19 1.17 14.4 0 0 463.65 190.24
  Q 460.03 197.23 454.02 200.97"
/>
<path stroke="#8c6526" stroke-opacity="0.604" d="
  M 450.23 197.86
  Q 450.18 194.12 452.60 190.61
  A 0.48 0.48 0.0 0 0 451.95 189.93
  Q 449.30 191.57 446.37 193.36
  Q 437.24 198.94 427.42 200.03"
/>
<path stroke="#8c6526" stroke-opacity="0.604" d="
  M 431.68 183.50
  C 429.74 186.22 425.93 192.57 426.33 195.96
  A 1.33 1.32 86.4 0 0 427.65 197.13
  Q 432.85 197.10 437.36 194.77"
/>
<path stroke="#8c6526" stroke-opacity="0.604" d="
  M 364.20 229.71
  L 359.28 241.19
  A 0.23 0.23 0.0 0 1 358.86 241.18
  L 350.10 220.30"
/>
<path stroke="#8c6526" stroke-opacity="0.604" d="
  M 349.11 218.37
  Q 347.86 217.86 346.28 218.34"
/>
<path stroke="#8c6526" stroke-opacity="0.604" d="
  M 357.60 245.00
  L 360.01 245.03
  A 0.78 0.76 11.6 0 0 360.74 244.56
  L 371.80 218.69
  A 0.33 0.33 0.0 0 0 371.51 218.23
  L 369.21 218.12"
/>
<path stroke="#8c6526" stroke-opacity="0.604" d="
  M 484.25 220.13
  Q 484.93 220.52 485.34 221.07
  A 1.15 1.14 -21.3 0 1 484.53 222.89
  Q 484.01 222.94 483.82 222.87
  Q 483.64 222.81 483.22 222.56
  Q 477.02 219.04 472.33 221.11
  Q 466.49 223.67 465.45 228.45
  Q 463.11 239.13 473.87 242.36"
/>
<path stroke="#8c6526" stroke-opacity="0.604" d="
  M 483.97 243.48
  Q 473.90 247.58 467.08 242.17"
/>
<path stroke="#8c6526" stroke-opacity="0.604" d="
  M 287.98 218.97
  L 288.04 231.76"
/>
<path stroke="#8c6526" stroke-opacity="0.604" d="
  M 294.80 245.16
  Q 294.30 244.98 293.72 245.14"
/>
<path stroke="#8c6526" stroke-opacity="0.604" d="
  M 284.91 232.29
  L 284.89 231.04"
/>
<path stroke="#8c6526" stroke-opacity="0.604" d="
  M 324.73 218.29
  Q 324.99 230.89 324.85 244.00
  Q 324.84 245.46 323.29 245.25"
/>
<path stroke="#8c6526" stroke-opacity="0.604" d="
  M 395.57 218.80
  L 395.60 245.36"
/>
<path stroke="#8c6526" stroke-opacity="0.604" d="
  M 424.74 221.53
  L 437.63 238.43
  A 0.66 0.66 0.0 0 0 438.82 238.02
  L 438.70 230.22"
/>
<path stroke="#8c6526" stroke-opacity="0.604" d="
  M 441.42 218.70
  L 441.54 243.85
  A 1.15 1.15 0.0 0 1 440.04 244.95
  L 438.70 244.53"
/>
<path stroke="#8c6526" stroke-opacity="0.604" d="
  M 437.45 242.98
  L 423.16 224.35
  A 0.41 0.41 0.0 0 0 422.42 224.60
  L 422.43 245.46"
/>
</g>
<g fill="#a8792e">
<path d="
  M 465.19 122.84
  L 442.36 152.23
  A 0.46 0.46 0.0 0 0 442.65 152.96
  L 453.28 154.72
  Q 468.42 157.15 481.75 156.23
  Q 505.43 154.60 524.23 139.15
  A 1.29 1.28 -42.5 0 1 525.94 139.22
  L 525.97 139.25
  A 1.07 0.99 48.5 0 1 525.94 140.82
  L 515.67 148.40
  C 499.64 157.67 482.55 160.29 464.20 158.55
  L 455.96 157.70
  L 440.61 155.70
  A 1.25 1.24 -58.9 0 0 439.70 155.93
  Q 437.83 157.32 436.55 159.65
  L 435.35 160.83
  Q 421.15 179.70 409.89 199.36
  L 404.66 211.00
  Q 403.44 211.00 402.55 210.68
  Q 402.67 207.42 404.70 203.66
  L 412.78 189.37
  A 0.21 0.21 0.0 0 0 412.49 189.08
  Q 408.00 191.87 401.38 195.62
  C 397.63 197.74 391.06 200.80 386.87 199.14
  C 382.21 197.29 383.30 193.19 384.28 189.27
  A 0.44 0.44 0.0 0 0 383.56 188.84
  Q 377.77 194.15 371.67 196.38
  A 2.43 2.36 37.5 0 1 370.55 196.51
  Q 366.44 196.01 367.33 191.63
  A 0.45 0.38 66.8 0 1 367.37 191.50
  L 368.53 189.14
  A 0.41 0.41 0.0 0 0 367.95 188.61
  Q 357.50 195.00 349.00 198.24
  C 341.91 200.93 330.36 203.61 332.12 191.17
  A 0.56 0.55 76.2 0 0 331.25 190.64
  C 326.13 194.31 320.77 198.41 315.02 199.75
  C 310.45 200.82 305.57 198.94 305.91 193.52
  Q 306.06 191.16 306.02 190.63
  A 0.36 0.36 0.0 0 0 305.46 190.35
  C 301.23 193.13 298.02 196.96 292.33 197.63
  Q 289.88 196.65 289.64 194.07
  Q 290.23 190.99 292.31 188.05
  A 0.23 0.23 0.0 0 0 292.12 187.69
  L 282.42 187.85
  Q 281.53 187.47 280.59 187.53
  A 1.30 1.29 -69.5 0 0 279.74 187.92
  L 277.77 189.91
  Q 272.37 196.93 265.58 200.86
  C 260.39 200.62 262.35 195.12 263.54 192.28
  Q 267.86 181.88 271.01 176.70
  Q 271.34 176.15 272.40 176.37
  A 0.94 0.94 0.0 0 1 273.07 177.65
  L 271.83 180.71
  Q 267.53 188.41 264.73 197.00
  A 0.62 0.62 0.0 0 0 265.55 197.77
  L 265.98 197.60
  A 1.30 1.22 13.2 0 0 266.24 197.45
  Q 272.95 192.40 278.44 184.77
  Q 287.65 186.06 292.75 184.53
  Q 295.95 183.56 304.34 178.83
  A 1.96 1.90 -58.2 0 1 305.25 178.60
  Q 307.63 178.64 309.53 180.42
  Q 310.42 182.04 311.82 181.56
  A 1.03 1.01 -82.5 0 1 312.98 183.11
  Q 310.19 187.34 308.68 191.86
  C 306.87 197.25 312.10 198.24 315.82 196.94
  Q 327.53 191.45 336.74 182.62
  C 339.20 180.26 344.64 176.73 347.46 180.47
  Q 348.20 181.66 347.58 183.16
  A 1.38 1.33 46.7 0 1 345.06 183.03
  Q 344.86 182.48 344.72 182.26
  A 1.54 1.54 0.0 0 0 342.81 181.71
  Q 335.65 184.91 334.53 192.48
  C 333.62 198.68 339.60 198.21 343.84 197.26
  Q 351.54 194.86 358.82 190.85
  Q 368.60 185.46 378.31 179.94
  C 381.73 178.00 384.58 177.07 387.24 180.32
  L 387.94 181.04
  A 0.89 0.88 -35.4 0 0 388.97 181.21
  Q 389.83 180.78 390.62 181.15
  A 0.86 0.85 28.5 0 1 390.99 182.38
  C 388.47 186.37 386.57 189.01 385.94 193.67
  A 2.81 2.71 -72.4 0 0 387.34 196.50
  Q 389.58 197.70 392.69 196.54
  Q 396.72 195.44 400.38 193.38
  Q 408.30 188.90 415.63 183.83
  A 7.14 7.14 0.0 0 0 417.44 182.02
  L 431.51 161.49
  L 435.91 155.78
  A 0.40 0.40 0.0 0 0 435.66 155.14
  L 419.07 152.50
  L 382.64 146.59
  A 1.46 1.41 1.0 0 1 381.43 145.38
  L 381.42 145.34
  A 0.93 0.93 0.0 0 1 382.36 144.29
  Q 388.20 144.40 394.32 145.41
  Q 417.09 149.14 434.92 152.44
  Q 436.71 152.77 438.18 152.53
  A 1.49 1.46 -75.1 0 0 439.11 151.98
  L 466.60 116.88
  A 1.16 1.15 -57.4 0 1 468.04 116.56
  L 468.49 116.80
  A 0.76 0.76 0.0 0 1 468.75 117.92
  L 465.19 122.84
  Z
  M 370.80 193.68
  C 373.60 193.07 384.57 186.80 385.55 183.05
  A 1.81 1.68 9.4 0 0 383.92 180.94
  C 378.73 180.51 372.03 188.07 369.67 192.13
  A 1.05 1.04 9.1 0 0 370.80 193.68
  Z
  M 293.50 194.76
  C 296.30 194.05 307.09 187.33 307.94 183.53
  A 1.82 1.69 7.3 0 0 306.22 181.47
  C 300.99 181.23 294.53 189.08 292.31 193.25
  A 1.05 1.05 0.0 0 0 293.50 194.76
  Z"
/>
<path d="
  M 226.33 275.73
  A 0.74 0.74 0.0 0 1 225.13 276.37
  L 223.99 275.47
  A 2.70 2.70 0.0 0 1 222.95 273.34
  L 222.95 120.55
  A 0.85 0.85 0.0 0 1 224.02 119.73
  L 224.31 119.80
  A 1.50 1.50 0.0 0 1 225.58 121.29
  Q 225.30 174.87 225.49 250.25
  Q 225.52 264.07 226.33 275.73
  Z"
/>
<path d="
  M 125.30 158.34
  L 118.92 161.39
  A 1.27 1.20 6.8 0 0 118.57 161.65
  Q 116.39 164.00 115.22 167.02
  Q 104.34 195.07 93.78 223.21
  L 92.49 226.78
  Q 92.01 227.29 92.07 228.04
  L 91.51 229.47
  L 89.81 234.04
  L 87.83 239.04
  A 1.13 1.01 -11.5 0 1 87.51 239.47
  Q 87.18 239.73 86.83 239.80
  A 1.59 1.59 0.0 0 1 85.02 238.86
  Q 65.91 193.29 54.06 164.73
  Q 53.51 163.42 51.51 161.27
  A 0.85 0.65 -1.5 0 0 51.26 161.09
  L 46.35 158.74
  A 0.23 0.23 0.0 0 1 46.45 158.30
  L 75.74 158.52
  Q 72.84 160.28 69.83 160.69
  C 67.76 160.98 66.41 162.49 67.20 164.47
  Q 78.46 192.76 90.36 221.18
  A 0.49 0.49 0.0 0 0 91.27 221.16
  L 93.52 214.86
  L 110.72 168.01
  Q 112.11 163.11 107.72 161.05
  L 102.43 159.36
  A 0.64 0.64 0.0 0 1 102.63 158.11
  L 125.30 158.34
  Z"
/>
<path d="
  M 152.73 160.48
  Q 152.05 160.57 152.11 160.78
  Q 148.70 162.05 148.64 164.63
  Q 148.43 173.97 148.45 183.27
  Q 148.03 216.89 148.49 231.50
  Q 148.68 237.51 155.28 237.25
  C 166.74 237.40 176.55 237.23 182.59 225.85
  Q 185.12 221.07 186.15 215.72
  A 0.34 0.33 43.0 0 1 186.80 215.70
  Q 187.20 217.09 187.08 219.50
  Q 187.00 221.12 186.35 233.00
  A 3.69 3.45 43.1 0 0 186.41 233.92
  Q 187.27 238.15 185.66 239.52
  L 139.45 239.48
  L 134.18 239.42
  L 130.07 239.36
  Q 129.66 239.46 129.45 239.19
  A 0.54 0.54 0.0 0 1 129.82 238.32
  C 134.59 237.83 137.11 236.60 137.12 231.38
  Q 137.19 198.64 137.11 165.99
  Q 137.30 162.28 134.28 160.63
  L 129.55 159.19
  A 0.42 0.42 0.0 0 1 129.67 158.36
  Q 151.66 158.25 155.51 158.41
  Q 156.24 158.44 157.36 158.96
  A 0.35 0.35 0.0 0 1 157.28 159.62
  L 152.73 160.48
  Z"
/>
<path d="
  M 435.55 175.04
  C 436.40 175.88 436.65 177.56 435.30 178.05
  A 1.43 1.43 0.0 0 1 433.44 177.13
  Q 432.96 175.54 434.56 174.96
  L 435.55 175.04
  Z"
/>
<path d="
  M 465.52 176.70
  C 467.21 179.59 466.54 183.13 465.61 186.06
  A 0.79 0.78 8.9 0 0 466.36 187.08
  Q 472.47 187.05 478.05 185.57
  L 482.15 184.05
  A 1.30 1.25 -85.7 0 0 482.84 183.43
  C 483.67 181.76 484.25 178.33 486.85 179.10
  Q 486.89 182.98 483.91 186.77
  Q 483.74 186.99 483.86 187.22
  A 0.28 0.28 0.0 0 0 484.30 187.29
  C 486.25 185.44 493.15 179.53 495.36 183.67
  C 496.46 185.73 496.30 188.59 497.17 190.60
  Q 499.12 195.05 505.00 192.87
  Q 511.94 189.76 518.36 184.62
  A 1.93 1.91 -50.2 0 1 520.46 184.42
  L 520.54 184.46
  A 0.85 0.81 40.1 0 1 520.69 185.86
  L 513.14 191.44
  Q 513.13 191.60 512.84 191.69
  L 508.63 194.13
  Q 504.94 195.79 500.96 196.18
  Q 496.98 196.14 495.02 192.14
  L 493.55 185.79
  A 1.22 1.21 67.5 0 0 491.73 185.03
  C 486.26 188.42 482.20 193.15 477.90 197.75
  Q 475.65 197.89 475.70 196.67
  L 479.86 188.25
  A 0.32 0.32 0.0 0 0 479.49 187.80
  Q 472.29 189.91 464.75 189.60
  A 1.19 1.17 14.4 0 0 463.65 190.24
  Q 460.03 197.23 454.02 200.97
  Q 450.65 200.63 450.23 197.86
  Q 450.18 194.12 452.60 190.61
  A 0.48 0.48 0.0 0 0 451.95 189.93
  Q 449.30 191.57 446.37 193.36
  Q 437.24 198.94 427.42 200.03
  Q 423.33 198.27 423.65 194.70
  C 423.93 191.46 427.12 185.38 429.60 181.99
  A 1.52 1.44 -50.5 0 1 431.79 181.72
  Q 432.22 182.13 431.68 183.50
  C 429.74 186.22 425.93 192.57 426.33 195.96
  A 1.33 1.32 86.4 0 0 427.65 197.13
  Q 432.85 197.10 437.36 194.77
  Q 447.54 190.61 456.04 183.53
  A 1.51 1.51 0.0 0 0 456.55 182.72
  C 457.49 178.79 461.17 174.63 465.52 176.70
  Z
  M 462.96 178.62
  C 460.11 179.77 456.73 184.68 461.68 186.30
  A 0.76 0.75 -68.0 0 0 462.60 185.90
  Q 464.31 182.23 463.86 179.14
  A 0.66 0.66 0.0 0 0 462.96 178.62
  Z
  M 460.65 188.66
  L 458.08 187.06
  A 0.69 0.69 0.0 0 0 457.13 187.28
  L 456.99 187.51
  A 10.71 2.08 -58.0 0 0 453.07 197.70
  L 453.28 197.83
  A 10.71 2.08 -58.0 0 0 460.72 189.85
  L 460.86 189.61
  A 0.69 0.69 0.0 0 0 460.65 188.66
  Z"
/>
<path d="
  M 484.25 220.13
  Q 484.93 220.52 485.34 221.07
  A 1.15 1.14 -21.3 0 1 484.53 222.89
  Q 484.01 222.94 483.82 222.87
  Q 483.64 222.81 483.22 222.56
  Q 477.02 219.04 472.33 221.11
  Q 466.49 223.67 465.45 228.45
  Q 463.11 239.13 473.87 242.36
  C 475.83 242.69 482.53 242.85 483.16 239.87
  A 0.69 0.61 -41.4 0 0 483.18 239.71
  L 483.18 232.89
  A 1.14 1.14 0.0 0 1 484.32 231.75
  Q 485.41 231.75 485.77 232.29
  Q 485.84 232.39 486.00 233.76
  Q 486.91 241.29 483.97 243.48
  Q 473.90 247.58 467.08 242.17
  C 459.40 234.78 461.19 223.03 470.95 218.70
  Q 477.44 215.83 484.25 220.13
  Z"
/>
<path d="
  M 287.98 218.97
  L 288.04 231.76
  L 288.12 241.11
  A 1.17 1.16 -0.2 0 0 289.29 242.26
  L 301.25 242.26
  A 1.77 1.76 80.1 0 1 302.91 243.43
  L 303.39 244.74
  A 0.63 0.63 0.0 0 1 302.76 245.58
  L 294.80 245.16
  Q 294.30 244.98 293.72 245.14
  L 285.93 244.92
  A 0.94 0.93 -89.7 0 1 285.02 243.99
  L 284.91 232.29
  L 284.89 231.04
  L 284.96 218.94
  A 0.94 0.93 86.9 0 1 285.79 218.01
  Q 287.86 217.77 287.98 218.97
  Z"
/>
<path d="
  M 324.73 218.29
  Q 324.99 230.89 324.85 244.00
  Q 324.84 245.46 323.29 245.25
  Q 322.08 245.36 322.07 244.30
  Q 322.01 231.77 322.08 218.89
  Q 322.08 218.40 322.46 218.09
  Q 323.23 217.48 324.73 218.29
  Z"
/>
<path d="
  M 349.11 218.37
  L 350.10 220.30
  L 358.86 241.18
  A 0.23 0.23 0.0 0 0 359.28 241.19
  L 364.20 229.71
  L 369.21 218.12
  L 371.51 218.23
  A 0.33 0.33 0.0 0 1 371.80 218.69
  L 360.74 244.56
  A 0.78 0.76 11.6 0 1 360.01 245.03
  L 357.60 245.00
  L 346.28 218.34
  Q 347.86 217.86 349.11 218.37
  Z"
/>
<path d="
  M 395.57 218.80
  L 395.60 245.36
  Q 392.72 245.89 392.71 242.75
  Q 392.68 230.87 392.67 218.95
  A 0.84 0.82 -5.5 0 1 393.35 218.14
  Q 395.34 217.75 395.57 218.80
  Z"
/>
<path d="
  M 424.74 221.53
  L 437.63 238.43
  A 0.66 0.66 0.0 0 0 438.82 238.02
  L 438.70 230.22
  L 438.75 219.18
  A 0.83 0.83 0.0 0 1 439.26 218.43
  Q 440.11 218.09 441.42 218.70
  L 441.54 243.85
  A 1.15 1.15 0.0 0 1 440.04 244.95
  L 438.70 244.53
  L 437.45 242.98
  L 423.16 224.35
  A 0.41 0.41 0.0 0 0 422.42 224.60
  L 422.43 245.46
  C 420.89 245.52 419.69 245.02 419.69 243.26
  Q 419.65 231.00 419.72 219.56
  A 1.46 1.46 0.0 0 1 422.29 218.63
  L 424.74 221.53
  Z"
/>
</g>
<g fill="#040401" fill-opacity="0.204">
<path d="
  M 465.19 122.84
  Q 467.84 129.53 463.40 135.17
  Q 456.11 144.44 453.42 148.05
  Q 450.85 151.51 453.28 154.72
  L 442.65 152.96
  A 0.46 0.46 0.0 0 1 442.36 152.23
  L 465.19 122.84
  Z"
/>
<path d="
  M 515.67 148.40
  C 516.90 153.92 510.28 157.63 505.54 159.32
  C 488.84 165.27 472.19 164.31 454.58 161.74
  Q 453.10 161.53 445.22 161.36
  A 1.30 1.29 -66.9 0 0 444.28 161.74
  C 440.26 165.85 436.13 169.89 435.55 175.04
  L 434.56 174.96
  Q 434.36 172.37 435.81 170.08
  C 439.67 163.97 442.89 158.78 450.80 158.60
  Q 457.74 158.45 464.32 159.57
  Q 469.12 160.39 482.86 159.88
  L 482.86 159.87
  C 476.73 160.02 470.11 160.52 464.20 158.55
  C 482.55 160.29 499.64 157.67 515.67 148.40
  Z"
/>
<path d="
  M 431.51 161.49
  L 419.07 152.50
  L 435.66 155.14
  A 0.40 0.40 0.0 0 1 435.91 155.78
  L 431.51 161.49
  Z"
/>
<path d="
  M 455.96 157.70
  C 452.78 157.68 450.11 157.71 446.80 158.43
  Q 441.74 159.54 436.55 159.65
  Q 437.83 157.32 439.70 155.93
  A 1.25 1.24 -58.9 0 1 440.61 155.70
  L 455.96 157.70
  Z"
/>
<path d="
  M 125.30 158.34
  Q 126.58 163.20 124.91 165.62
  Q 121.08 171.17 119.27 176.05
  Q 115.39 186.47 105.43 213.96
  Q 102.58 221.80 93.78 223.21
  Q 104.34 195.07 115.22 167.02
  Q 116.39 164.00 118.57 161.65
  A 1.27 1.20 6.8 0 1 118.92 161.39
  L 125.30 158.34
  Z"
/>
<path d="
  M 75.74 158.52
  Q 74.45 164.95 74.32 166.80
  C 74.09 170.31 75.31 173.20 76.55 176.55
  Q 83.65 195.77 93.52 214.86
  L 91.27 221.16
  A 0.49 0.49 0.0 0 1 90.36 221.18
  Q 78.46 192.76 67.20 164.47
  C 66.41 162.49 67.76 160.98 69.83 160.69
  Q 72.84 160.28 75.74 158.52
  Z"
/>
<path d="
  M 409.89 199.36
  Q 421.15 179.70 435.35 160.83
  L 437.72 160.27
  A 0.55 0.55 0.0 0 1 438.40 160.81
  L 438.38 162.05
  A 0.61 0.60 -72.9 0 0 438.64 162.55
  Q 438.69 162.58 438.99 162.41
  A 0.28 0.28 0.0 0 1 439.40 162.59
  Q 439.59 163.47 439.24 163.94
  Q 433.86 171.09 433.19 172.17
  C 424.96 185.36 421.93 190.43 416.11 198.09
  Q 413.74 201.21 409.39 210.59
  A 0.48 0.46 3.7 0 1 409.09 210.84
  Q 408.63 210.97 408.35 210.79
  A 0.45 0.44 28.6 0 1 408.18 210.23
  Q 411.02 204.33 409.89 199.36
  Z"
/>
<path d="
  M 152.73 160.48
  L 152.11 160.78
  Q 152.05 160.57 152.73 160.48
  Z"
/>
<path d="
  M 137.11 165.99
  Q 135.07 163.59 134.28 160.63
  Q 137.30 162.28 137.11 165.99
  Z"
/>
<path d="
  M 110.72 168.01
  L 107.72 161.05
  Q 112.11 163.11 110.72 168.01
  Z"
/>
<path d="
  M 478.05 185.57
  Q 472.47 187.05 466.36 187.08
  A 0.79 0.78 8.9 0 1 465.61 186.06
  C 466.54 183.13 467.21 179.59 465.52 176.70
  Q 469.99 179.15 473.08 183.43
  Q 474.16 184.93 478.05 185.57
  Z"
/>
<path d="
  M 505.00 192.87
  Q 499.12 195.05 497.17 190.60
  C 496.30 188.59 496.46 185.73 495.36 183.67
  C 493.15 179.53 486.25 185.44 484.30 187.29
  A 0.28 0.28 0.0 0 1 483.86 187.22
  Q 483.74 186.99 483.91 186.77
  Q 486.89 182.98 486.85 179.10
  Q 489.01 180.59 491.90 181.34
  Q 494.58 182.05 495.96 183.00
  Q 498.32 184.64 499.25 186.02
  Q 501.71 189.68 505.00 192.87
  Z"
/>
<path d="
  M 315.82 196.94
  C 312.10 198.24 306.87 197.25 308.68 191.86
  Q 310.19 187.34 312.98 183.11
  A 1.03 1.01 -82.5 0 0 311.82 181.56
  Q 310.42 182.04 309.53 180.42
  Q 314.90 180.86 316.24 185.56
  Q 316.69 187.15 316.26 189.57
  C 315.78 192.23 315.30 193.82 315.82 196.94
  Z"
/>
<path d="
  M 343.84 197.26
  C 339.60 198.21 333.62 198.68 334.53 192.48
  Q 335.65 184.91 342.81 181.71
  A 1.54 1.54 0.0 0 1 344.72 182.26
  Q 344.86 182.48 345.06 183.03
  A 1.38 1.33 46.7 0 0 347.58 183.16
  Q 348.20 181.66 347.46 180.47
  Q 350.33 182.29 351.69 185.46
  A 0.58 0.58 0.0 0 1 351.31 186.25
  C 347.07 187.41 338.24 191.33 343.84 197.26
  Z"
/>
<path d="
  M 392.69 196.54
  Q 389.58 197.70 387.34 196.50
  A 2.81 2.71 -72.4 0 1 385.94 193.67
  C 386.57 189.01 388.47 186.37 390.99 182.38
  A 0.86 0.85 28.5 0 0 390.62 181.15
  Q 389.83 180.78 388.97 181.21
  A 0.89 0.88 -35.4 0 1 387.94 181.04
  L 387.24 180.32
  L 390.99 180.40
  A 1.06 1.06 0.0 0 1 391.65 180.63
  L 395.27 183.47
  A 1.97 1.96 -63.0 0 1 395.95 185.58
  L 392.69 196.54
  Z"
/>
<path d="
  M 278.44 184.77
  Q 272.95 192.40 266.24 197.45
  A 1.30 1.22 13.2 0 1 265.98 197.60
  L 265.55 197.77
  A 0.62 0.62 0.0 0 1 264.73 197.00
  Q 267.53 188.41 271.83 180.71
  Q 275.54 182.04 278.44 184.77
  Z"
/>
<path d="
  M 155.28 237.25
  Q 148.68 237.51 148.49 231.50
  Q 148.03 216.89 148.45 183.27
  Q 151.09 188.10 150.52 193.73
  A 0.10 0.06 76.4 0 0 150.63 193.84
  Q 150.65 193.81 150.70 193.81
  A 0.09 0.08 0.0 0 0 150.79 193.73
  L 150.77 184.62
  A 0.20 0.20 0.0 0 1 151.17 184.56
  C 152.82 190.14 151.06 196.29 151.12 202.19
  Q 151.13 203.03 152.84 207.99
  A 19.00 18.98 -58.0 0 1 153.71 211.78
  C 154.57 218.83 153.13 228.74 155.28 237.25
  Z"
/>
<path d="
  M 431.68 183.50
  C 436.42 184.97 435.87 188.29 435.19 192.20
  C 434.89 193.91 435.78 194.60 437.36 194.77
  Q 432.85 197.10 427.65 197.13
  A 1.33 1.32 86.4 0 1 426.33 195.96
  C 425.93 192.57 429.74 186.22 431.68 183.50
  Z"
/>
<path d="
  M 495.02 192.14
  C 488.24 191.04 486.88 201.36 477.90 197.75
  C 482.20 193.15 486.26 188.42 491.73 185.03
  A 1.22 1.21 67.5 0 1 493.55 185.79
  L 495.02 192.14
  Z"
/>
<path d="
  M 289.64 194.07
  Q 285.19 191.78 282.42 187.85
  L 292.12 187.69
  A 0.23 0.23 0.0 0 1 292.31 188.05
  Q 290.23 190.99 289.64 194.07
  Z"
/>
<path d="
  M 475.70 196.67
  C 469.62 190.80 464.77 201.31 459.39 202.52
  Q 456.49 203.18 454.02 200.97
  Q 460.03 197.23 463.65 190.24
  A 1.19 1.17 14.4 0 1 464.75 189.60
  Q 472.29 189.91 479.49 187.80
  A 0.32 0.32 0.0 0 1 479.86 188.25
  L 475.70 196.67
  Z"
/>
<path d="
  M 404.70 203.66
  Q 399.62 203.30 394.75 204.02
  C 391.19 204.55 386.20 200.67 384.21 197.84
  A 1.21 1.21 0.0 0 0 382.76 197.42
  Q 379.18 198.90 375.75 199.06
  C 373.47 199.17 370.57 197.92 368.46 197.41
  C 366.20 196.87 363.64 197.58 361.35 198.67
  C 353.57 202.36 344.85 206.16 336.86 201.40
  C 331.22 198.04 329.54 199.17 323.29 201.75
  C 316.66 204.49 311.27 202.08 306.20 197.82
  A 0.78 0.77 -38.7 0 0 305.33 197.73
  C 300.78 200.20 296.63 201.01 292.33 197.63
  C 298.02 196.96 301.23 193.13 305.46 190.35
  A 0.36 0.36 0.0 0 1 306.02 190.63
  Q 306.06 191.16 305.91 193.52
  C 305.57 198.94 310.45 200.82 315.02 199.75
  C 320.77 198.41 326.13 194.31 331.25 190.64
  A 0.56 0.55 76.2 0 1 332.12 191.17
  C 330.36 203.61 341.91 200.93 349.00 198.24
  Q 357.50 195.00 367.95 188.61
  A 0.41 0.41 0.0 0 1 368.53 189.14
  L 367.37 191.50
  A 0.45 0.38 66.8 0 0 367.33 191.63
  Q 366.44 196.01 370.55 196.51
  A 2.43 2.36 37.5 0 0 371.67 196.38
  Q 377.77 194.15 383.56 188.84
  A 0.44 0.44 0.0 0 1 384.28 189.27
  C 383.30 193.19 382.21 197.29 386.87 199.14
  C 391.06 200.80 397.63 197.74 401.38 195.62
  Q 408.00 191.87 412.49 189.08
  A 0.21 0.21 0.0 0 1 412.78 189.37
  L 404.70 203.66
  Z"
/>
<path d="
  M 450.23 197.86
  Q 445.76 199.21 441.38 200.84
  Q 436.49 202.66 434.24 202.60
  Q 430.46 202.50 427.42 200.03
  Q 437.24 198.94 446.37 193.36
  Q 449.30 191.57 451.95 189.93
  A 0.48 0.48 0.0 0 1 452.60 190.61
  Q 450.18 194.12 450.23 197.86
  Z"
/>
<path d="
  M 277.77 189.91
  C 279.43 195.43 278.12 201.40 271.83 202.33
  Q 268.54 202.83 265.58 200.86
  Q 272.37 196.93 277.77 189.91
  Z"
/>
<path d="
  M 488.74 195.97
  Q 490.12 194.31 491.72 192.89
  Q 491.75 192.86 491.79 192.86
  A 0.05 0.05 0.0 0 1 491.82 192.95
  L 488.74 195.97
  Z"
/>
<path d="
  M 513.14 191.44
  C 512.56 195.03 510.98 198.95 507.09 199.50
  Q 502.03 200.22 498.25 196.35
  A 0.10 0.10 0.0 0 1 498.25 196.21
  A 0.17 0.15 -50.6 0 1 498.46 196.18
  C 501.66 198.50 505.83 199.95 509.15 197.84
  C 510.72 196.84 512.02 193.52 512.84 191.69
  Q 513.13 191.60 513.14 191.44
  Z"
/>
<path d="
  M 508.63 194.13
  Q 509.82 195.66 509.27 196.48
  C 507.73 198.83 502.73 197.10 500.96 196.18
  Q 504.94 195.79 508.63 194.13
  Z"
/>
<path d="
  M 488.74 195.97
  L 484.75 199.81
  L 488.74 195.97
  Z"
/>
<path d="
  M 402.55 210.68
  Q 403.44 211.00 404.66 211.00
  Q 406.62 211.24 408.18 212.32
  A 0.91 0.90 -58.6 0 0 409.50 212.00
  L 416.48 198.72
  A 0.32 0.32 0.0 0 1 416.90 198.58
  L 416.91 198.59
  A 0.35 0.35 0.0 0 1 417.04 199.04
  L 410.82 211.99
  A 0.87 0.86 7.5 0 1 410.20 212.46
  L 407.73 212.88
  A 1.24 1.21 -30.5 0 1 406.75 212.64
  Q 405.71 211.82 404.72 211.44
  A 0.35 0.35 0.0 0 0 404.38 212.05
  L 407.18 214.25
  A 0.96 0.93 -35.2 0 0 408.07 214.39
  L 410.44 213.53
  A 1.36 1.36 0.0 0 0 411.21 212.83
  L 414.01 206.95
  A 0.17 0.17 0.0 0 1 414.21 206.86
  L 414.22 206.87
  A 0.21 0.20 -69.3 0 1 414.33 207.13
  Q 412.26 212.32 411.64 213.09
  Q 409.05 216.29 405.77 214.13
  A 1.46 1.11 3.7 0 1 405.54 213.93
  L 402.55 210.68
  Z"
/>
<path d="
  M 483.00 200.81
  C 482.89 200.78 481.22 200.30 481.23 200.28
  Q 482.12 200.52 483.00 200.81
  Z"
/>
<path d="
  M 484.75 199.81
  L 483.00 200.81
  L 484.75 199.81
  Z"
/>
<path d="
  M 364.20 229.71
  L 359.28 241.19
  A 0.23 0.23 0.0 0 1 358.86 241.18
  L 350.10 220.30
  C 356.47 222.30 358.27 227.95 360.50 233.52
  A 0.48 0.48 0.0 0 0 361.11 233.79
  L 361.42 233.68
  A 0.72 0.71 65.9 0 0 361.80 232.66
  C 358.42 226.38 357.20 220.24 349.11 218.37
  Q 347.86 217.86 346.28 218.34
  L 347.80 217.41
  A 1.19 1.18 36.9 0 1 348.74 217.28
  Q 352.62 218.35 355.71 220.76
  C 359.14 223.45 359.37 228.98 364.20 229.71
  Z"
/>
<path d="
  M 357.60 245.00
  L 360.01 245.03
  A 0.78 0.76 11.6 0 0 360.74 244.56
  L 371.80 218.69
  A 0.33 0.33 0.0 0 0 371.51 218.23
  L 369.21 218.12
  Q 372.12 216.24 375.86 219.86
  Q 379.04 222.93 377.18 227.48
  Q 373.58 236.26 370.93 241.97
  C 368.91 246.33 364.04 247.84 359.36 248.35
  A 0.14 0.13 -8.4 0 1 359.20 248.24
  L 359.20 248.23
  A 0.12 0.12 0.0 0 1 359.30 248.10
  C 364.25 246.95 367.66 244.88 370.13 240.09
  C 372.97 234.60 375.76 228.88 376.46 222.19
  A 1.12 1.10 23.2 0 0 376.07 221.23
  Q 375.06 220.37 373.38 220.49
  A 0.75 0.75 0.0 0 1 372.58 219.74
  L 372.58 218.61
  A 0.31 0.31 0.0 0 0 372.16 218.32
  L 371.92 218.41
  A 0.14 0.14 0.0 0 0 371.83 218.58
  L 373.66 223.64
  A 7.84 7.83 -46.0 0 1 373.74 228.69
  Q 372.22 233.42 369.27 239.26
  C 366.65 244.45 363.30 246.85 357.60 245.00
  Z"
/>
<path d="
  M 323.29 245.25
  Q 324.84 245.46 324.85 244.00
  Q 324.99 230.89 324.73 218.29
  Q 329.72 221.32 329.70 226.75
  Q 329.67 233.40 326.61 240.26
  A 1.65 1.64 -3.7 0 1 325.95 241.01
  Q 324.31 241.99 325.06 244.28
  A 1.03 0.97 78.2 0 1 324.24 245.63
  Q 323.80 245.66 323.29 245.25
  Z"
/>
<path d="
  M 438.70 244.53
  L 440.04 244.95
  A 1.15 1.15 0.0 0 0 441.54 243.85
  L 441.42 218.70
  Q 445.94 222.75 446.64 227.60
  Q 447.16 231.17 446.81 245.30
  A 1.20 1.20 0.0 0 1 446.65 245.86
  Q 445.76 247.36 445.10 247.81
  A 1.45 1.44 -53.3 0 1 443.83 248.00
  Q 440.58 246.97 438.70 244.53
  Z"
/>
<path d="
  M 395.60 245.36
  L 395.57 218.80
  Q 399.44 221.56 400.38 225.09
  Q 403.50 236.80 395.60 245.36
  Z"
/>
<path d="
  M 288.04 231.76
  L 287.98 218.97
  C 291.47 223.37 293.79 227.46 288.04 231.76
  Z"
/>
<path d="
  M 473.87 242.36
  Q 463.11 239.13 465.45 228.45
  Q 466.49 223.67 472.33 221.11
  Q 477.02 219.04 483.22 222.56
  Q 483.64 222.81 483.82 222.87
  Q 484.01 222.94 484.53 222.89
  A 1.15 1.14 -21.3 0 0 485.34 221.07
  Q 484.93 220.52 484.25 220.13
  L 488.35 223.22
  A 0.32 0.32 0.0 0 1 488.28 223.77
  Q 485.68 224.85 485.34 224.92
  C 481.96 225.65 477.64 225.97 475.38 227.75
  C 470.54 231.56 471.75 237.14 473.87 242.36
  Z"
/>
<path d="
  M 438.70 230.22
  L 438.82 238.02
  A 0.66 0.66 0.0 0 1 437.63 238.43
  L 424.74 221.53
  C 430.34 224.25 433.53 229.48 437.13 234.14
  A 0.33 0.32 -44.6 0 0 437.64 234.14
  L 437.81 233.92
  A 0.29 0.29 0.0 0 0 437.80 233.55
  Q 433.44 228.84 429.70 222.94
  A 0.07 0.05 -87.8 0 1 429.78 222.85
  Q 429.82 222.90 429.86 222.89
  A 0.09 0.08 -20.8 0 1 429.96 222.93
  Q 431.39 225.06 434.46 228.79
  Q 436.34 231.06 438.70 230.22
  Z"
/>
<path d="
  M 437.45 242.98
  L 429.81 234.74
  A 0.57 0.57 0.0 0 0 428.83 235.07
  C 428.38 239.30 428.02 243.33 425.68 246.92
  A 0.49 0.49 0.0 0 1 425.01 247.07
  L 422.43 245.46
  L 422.42 224.60
  A 0.41 0.41 0.0 0 1 423.16 224.35
  L 437.45 242.98
  Z"
/>
<path d="
  M 92.49 226.78
  Q 92.50 227.75 92.07 228.04
  Q 92.01 227.29 92.49 226.78
  Z"
/>
<path d="
  M 89.81 234.04
  L 91.51 229.47
  Q 91.40 232.09 89.81 234.04
  Z"
/>
<path d="
  M 284.89 231.04
  L 284.91 232.29
  L 284.89 231.04
  Z"
/>
<path d="
  M 134.18 239.42
  L 130.07 239.36
  L 134.18 239.42
  Z"
/>
<path d="
  M 185.66 239.52
  Q 180.45 241.85 178.82 242.11
  Q 171.01 243.36 169.55 243.57
  Q 161.64 244.67 154.76 242.98
  Q 152.11 242.32 150.24 242.32
  C 145.99 242.32 143.03 242.95 139.45 239.48
  L 185.66 239.52
  Z"
/>
<path d="
  M 483.97 243.48
  Q 483.14 244.69 482.62 245.03
  A 0.75 0.75 0.0 0 0 482.35 245.99
  Q 482.37 246.01 482.44 246.13
  A 0.57 0.56 63.4 0 1 482.18 246.92
  C 476.39 249.50 470.69 246.98 467.08 242.17
  Q 473.90 247.58 483.97 243.48
  Z"
/>
<path d="
  M 294.80 245.16
  Q 294.21 245.44 293.72 245.14
  Q 294.30 244.98 294.80 245.16
  Z"
/>
</g>
<g stroke-width="2.00" fill="none" stroke-linecap="butt">
<path stroke="#8c6526" stroke-opacity="0.604" d="
  M 370.80 193.68
  C 373.60 193.07 384.57 186.80 385.55 183.05
  A 1.81 1.68 9.4 0 0 383.92 180.94
  C 378.73 180.51 372.03 188.07 369.67 192.13
  A 1.05 1.04 9.1 0 0 370.80 193.68"
/>
<path stroke="#8c6526" stroke-opacity="0.604" d="
  M 293.50 194.76
  C 296.30 194.05 307.09 187.33 307.94 183.53
  A 1.82 1.69 7.3 0 0 306.22 181.47
  C 300.99 181.23 294.53 189.08 292.31 193.25
  A 1.05 1.05 0.0 0 0 293.50 194.76"
/>
<path stroke="#8c6526" stroke-opacity="0.604" d="
  M 462.96 178.62
  C 460.11 179.77 456.73 184.68 461.68 186.30
  A 0.76 0.75 -68.0 0 0 462.60 185.90
  Q 464.31 182.23 463.86 179.14
  A 0.66 0.66 0.0 0 0 462.96 178.62"
/>
<path stroke="#8c6526" stroke-opacity="0.604" d="
  M 460.65 188.66
  L 458.08 187.06
  A 0.69 0.69 0.0 0 0 457.13 187.28
  L 456.99 187.51
  A 10.71 2.08 -58.0 0 0 453.07 197.70
  L 453.28 197.83
  A 10.71 2.08 -58.0 0 0 460.72 189.85
  L 460.86 189.61
  A 0.69 0.69 0.0 0 0 460.65 188.66"
/>
</g>
<g fill="#040401" fill-opacity="0.204">
<path d="
  M 462.96 178.62
  A 0.66 0.66 0.0 0 1 463.86 179.14
  Q 464.31 182.23 462.60 185.90
  A 0.76 0.75 -68.0 0 1 461.68 186.30
  C 456.73 184.68 460.11 179.77 462.96 178.62
  Z"
/>
<path d="
  M 370.80 193.68
  A 1.05 1.04 9.1 0 1 369.67 192.13
  C 372.03 188.07 378.73 180.51 383.92 180.94
  A 1.81 1.68 9.4 0 1 385.55 183.05
  C 384.57 186.80 373.60 193.07 370.80 193.68
  Z"
/>
<path d="
  M 293.50 194.76
  A 1.05 1.05 0.0 0 1 292.31 193.25
  C 294.53 189.08 300.99 181.23 306.22 181.47
  A 1.82 1.69 7.3 0 1 307.94 183.53
  C 307.09 187.33 296.30 194.05 293.50 194.76
  Z"
/>
<path d="
  M 460.65 188.66
  A 0.69 0.69 0.0 0 1 460.86 189.61
  L 460.72 189.85
  A 10.71 2.08 -58.0 0 1 453.28 197.83
  L 453.07 197.70
  A 10.71 2.08 -58.0 0 1 456.99 187.51
  L 457.13 187.28
  A 0.69 0.69 0.0 0 1 458.08 187.06
  L 460.65 188.66
  Z"
/>
</g>
</svg>
