<svg xmlns="http://www.w3.org/2000/svg" viewBox="0 0 612 408"><g fill="none" stroke="#a8792e"><path d="m465.19 122.84-22.83 29.39a.46.46 0 0 0 .29.73l10.63 1.76q15.14 2.43 28.47 1.51 23.68-1.63 42.48-17.08c.51-.42 1.24-.39 1.71.07l.03.03c.47.46.46 1.21-.03 1.57l-10.27 7.58c-16.03 9.27-33.12 11.89-51.47 10.15l-8.24-.85-15.35-2c-.32-.04-.65.04-.91.23q-1.87 1.39-3.15 3.72l-1.2 1.18q-14.2 18.87-25.46 38.53L404.66 211q-1.22 0-2.11-.32.12-3.26 2.15-7.02l8.08-14.29c.11-.19-.11-.41-.29-.29q-4.49 2.79-11.11 6.54c-3.75 2.12-10.32 5.18-14.51 3.52-4.66-1.85-3.57-5.95-2.59-9.87.1-.42-.4-.72-.72-.43q-5.79 5.31-11.89 7.54c-.35.13-.74.18-1.12.13q-4.11-.5-3.22-4.88c.01-.05.02-.09.04-.13l1.16-2.36c.18-.37-.23-.74-.58-.53Q357.5 195 349 198.24c-7.09 2.69-18.64 5.37-16.88-7.07.07-.48-.48-.82-.87-.53-5.12 3.67-10.48 7.77-16.23 9.11-4.57 1.07-9.45-.81-9.11-6.23q.15-2.36.11-2.89c-.02-.28-.33-.43-.56-.28-4.23 2.78-7.44 6.61-13.13 7.28q-2.45-.98-2.69-3.56.59-3.08 2.67-6.02c.11-.15 0-.36-.19-.36l-9.7.16q-.89-.38-1.83-.32c-.32.02-.62.16-.85.39l-1.97 1.99q-5.4 7.02-12.19 10.95c-5.19-.24-3.23-5.74-2.04-8.58q4.32-10.4 7.47-15.58.33-.55 1.39-.33c.57.13.89.74.67 1.28l-1.24 3.06q-4.3 7.7-7.1 16.29c-.16.5.33.97.82.77l.43-.17c.09-.04.18-.09.26-.15q6.71-5.05 12.2-12.68 9.21 1.29 14.31-.24 3.2-.97 11.59-5.7c.28-.15.59-.23.91-.23q2.38.04 4.28 1.82.89 1.62 2.29 1.14c.91-.32 1.7.73 1.16 1.55q-2.79 4.23-4.3 8.75c-1.81 5.39 3.42 6.38 7.14 5.08q11.71-5.49 20.92-14.32c2.46-2.36 7.9-5.89 10.72-2.15q.74 1.19.12 2.69c-.46 1.12-2.08 1.04-2.52-.13q-.2-.55-.34-.77c-.42-.62-1.22-.86-1.91-.55q-7.16 3.2-8.28 10.77c-.91 6.2 5.07 5.73 9.31 4.78q7.7-2.4 14.98-6.41 9.78-5.39 19.49-10.91c3.42-1.94 6.27-2.87 8.93.38l.7.72c.27.27.68.34 1.03.17q.86-.43 1.65-.06c.47.22.65.8.37 1.23-2.52 3.99-4.42 6.63-5.05 11.29-.16 1.17.4 2.3 1.4 2.83q2.24 1.2 5.35.04 4.03-1.1 7.69-3.16 7.92-4.48 15.25-9.55c.71-.49 1.32-1.1 1.81-1.81l14.07-20.53 4.4-5.71c.19-.24.05-.59-.25-.64l-16.59-2.64-36.43-5.91c-.64-.1-1.13-.59-1.21-1.21l-.01-.04a.933.933 0 0 1 .94-1.05q5.84.11 11.96 1.12 22.77 3.73 40.6 7.03 1.79.33 3.26.09c.37-.06.7-.25.93-.55l27.49-35.1c.34-.44.95-.57 1.44-.32l.45.24c.41.22.53.75.26 1.12zm-94.39 70.84c2.8-.61 13.77-6.88 14.75-10.63.27-1.01-.51-2.02-1.63-2.11-5.19-.43-11.89 7.13-14.25 11.19-.46.78.24 1.73 1.13 1.55Zm-77.3 1.08c2.8-.71 13.59-7.43 14.44-11.23.23-1.02-.59-2.01-1.72-2.06-5.23-.24-11.69 7.61-13.91 11.78-.43.8.3 1.73 1.19 1.51ZM226.33 275.73a.743.743 0 0 1-1.2.64l-1.14-.9a2.69 2.69 0 0 1-1.04-2.13V120.55c0-.56.53-.96 1.07-.82l.29.07c.74.11 1.28.75 1.27 1.49q-.28 53.58-.09 128.96.03 13.82.84 25.48ZM125.3 158.34l-6.38 3.05c-.13.07-.25.15-.35.26q-2.18 2.35-3.35 5.37-10.88 28.05-21.44 56.19l-1.29 3.57q-.48.51-.42 1.26l-.56 1.43-1.7 4.57-1.98 5c-.07.16-.18.31-.32.43q-.33.26-.68.33c-.75.17-1.52-.23-1.81-.94q-19.11-45.57-30.96-74.13-.55-1.31-2.55-3.46a1 1 0 0 0-.25-.18l-4.91-2.35c-.22-.11-.15-.44.1-.44l29.29.22q-2.9 1.76-5.91 2.17c-2.07.29-3.42 1.8-2.63 3.78q11.26 28.29 23.16 56.71c.17.41.76.4.91-.02l2.25-6.3 17.2-46.85q1.39-4.9-3-6.96l-5.29-1.69c-.3-.1-.49-.4-.44-.71s.32-.54.64-.54zM152.73 160.48q-.68.09-.62.3-3.41 1.27-3.47 3.85-.21 9.34-.19 18.64-.42 33.62.04 48.23.19 6.01 6.79 5.75c11.46.15 21.27-.02 27.31-11.4q2.53-4.78 3.56-10.13c.07-.34.56-.36.65-.02q.4 1.39.28 3.8-.08 1.62-.73 13.5c-.02.31 0 .61.06.92q.86 4.23-.75 5.6l-46.21-.04-5.27-.06-4.11-.06q-.41.1-.62-.17a.54.54 0 0 1 .37-.87c4.77-.49 7.29-1.72 7.3-6.94q.07-32.74-.01-65.39.19-3.71-2.83-5.36l-4.73-1.44a.43.43 0 0 1-.3-.47c.03-.2.21-.36.42-.36q21.99-.11 25.84.05.73.03 1.85.55c.31.14.25.6-.08.66z" vector-effect="non-scaling-stroke"/><path d="M435.55 175.04c.85.84 1.1 2.52-.25 3.01-.77.28-1.62-.14-1.86-.92q-.48-1.59 1.12-2.17zM465.52 176.7c1.69 2.89 1.02 6.43.09 9.36-.16.5.22 1.02.75 1.02q6.11-.03 11.69-1.51l4.1-1.52c.3-.11.54-.33.69-.62.83-1.67 1.41-5.1 4.01-4.33q.04 3.88-2.94 7.67-.17.22-.05.45c.08.16.31.2.44.07 1.95-1.85 8.85-7.76 11.06-3.62 1.1 2.06.94 4.92 1.81 6.93q1.95 4.45 7.83 2.27 6.94-3.11 13.36-8.25c.6-.48 1.43-.56 2.1-.2l.08.04c.55.29.63 1.04.15 1.4l-7.55 5.58q-.01.16-.3.25l-4.21 2.44q-3.69 1.66-7.67 2.05-3.98-.04-5.94-4.04l-1.47-6.35c-.19-.81-1.12-1.2-1.82-.76-5.47 3.39-9.53 8.12-13.83 12.72q-2.25.14-2.2-1.08l4.16-8.42c.12-.25-.1-.53-.37-.45q-7.2 2.11-14.74 1.8c-.46-.02-.89.23-1.1.64q-3.62 6.99-9.63 10.73-3.37-.34-3.79-3.11-.05-3.74 2.37-7.25c.3-.43-.21-.96-.65-.68q-2.65 1.64-5.58 3.43-9.13 5.58-18.95 6.67-4.09-1.76-3.77-5.33c.28-3.24 3.47-9.32 5.95-12.71.54-.73 1.56-.86 2.19-.27q.43.41-.11 1.78c-1.94 2.72-5.75 9.07-5.35 12.46.08.67.65 1.18 1.32 1.17q5.2-.03 9.71-2.36 10.18-4.16 18.68-11.24c.25-.21.43-.49.51-.81.94-3.93 4.62-8.09 8.97-6.02Zm-2.56 1.92c-2.85 1.15-6.23 6.06-1.28 7.68.36.12.75-.05.92-.4q1.71-3.67 1.26-6.76a.662.662 0 0 0-.9-.52Zm-2.31 10.04-2.57-1.6a.687.687 0 0 0-.95.22l-.14.23c-3.14 5.02-4.89 9.58-3.92 10.19l.21.13c.97.6 4.3-2.97 7.44-7.98l.14-.24c.21-.32.11-.75-.21-.95ZM484.25 220.13q.68.39 1.09.94c.53.71.08 1.73-.81 1.82q-.52.05-.71-.02-.18-.06-.6-.31-6.2-3.52-10.89-1.45-5.84 2.56-6.88 7.34-2.34 10.68 8.42 13.91c1.96.33 8.66.49 9.29-2.49.01-.05.02-.11.02-.16v-6.82c0-.63.51-1.14 1.14-1.14q1.09 0 1.45.54.07.1.23 1.47.91 7.53-2.03 9.72-10.07 4.1-16.89-1.31c-7.68-7.39-5.89-19.14 3.87-23.47q6.49-2.87 13.3 1.43ZM287.98 218.97l.06 12.79.08 9.35c.01.64.53 1.15 1.17 1.15h11.96c.74 0 1.41.47 1.66 1.17l.48 1.31c.15.42-.18.86-.63.84l-7.96-.42q-.5-.18-1.08-.02l-7.79-.22c-.5-.01-.9-.42-.91-.93l-.11-11.7-.02-1.25.07-12.1c0-.48.36-.88.83-.93q2.07-.24 2.19.96ZM324.73 218.29q.26 12.6.12 25.71-.01 1.46-1.56 1.25-1.21.11-1.22-.95-.06-12.53.01-25.41 0-.49.38-.8.77-.61 2.27.2ZM349.11 218.37l.99 1.93 8.76 20.88c.08.19.34.19.42.01l4.92-11.48 5.01-11.59 2.3.11c.23.01.38.25.29.46l-11.06 25.87c-.12.29-.41.48-.73.47l-2.41-.03-11.32-26.66q1.58-.48 2.83.03ZM395.57 218.8l.03 26.56q-2.88.53-2.89-2.61-.03-11.88-.04-23.8c0-.39.29-.73.68-.81q1.99-.39 2.22.66ZM424.74 221.53l12.89 16.9c.39.51 1.2.23 1.19-.41l-.12-7.8.05-11.04c.01-.33.21-.62.51-.75q.85-.34 2.16.27l.12 25.15c0 .78-.75 1.34-1.5 1.1l-1.34-.42-1.25-1.55-14.29-18.63c-.24-.31-.74-.14-.74.25l.01 20.86c-1.54.06-2.74-.44-2.74-2.2q-.04-12.26.03-23.7c.01-1.35 1.7-1.97 2.57-.93z" vector-effect="non-scaling-stroke"/></g><g fill="none" stroke="#040401" stroke-opacity=".204"><path d="M465.19 122.84q2.65 6.69-1.79 12.33-7.29 9.27-9.98 12.88-2.57 3.46-.14 6.67l-10.63-1.76a.46.46 0 0 1-.29-.73zM515.67 148.4c1.23 5.52-5.39 9.23-10.13 10.92-16.7 5.95-33.35 4.99-50.96 2.42q-1.48-.21-9.36-.38c-.35-.01-.69.13-.94.38-4.02 4.11-8.15 8.15-8.73 13.3l-.99-.08q-.2-2.59 1.25-4.88c3.86-6.11 7.08-11.3 14.99-11.48q6.94-.15 13.52.97 4.8.82 18.54.31v-.01c-6.13.15-12.75.65-18.66-1.32 18.35 1.74 35.44-.88 51.47-10.15ZM431.51 161.49l-12.44-8.99 16.59 2.64c.3.05.44.4.25.64z" vector-effect="non-scaling-stroke"/><path d="M455.96 157.7c-3.18-.02-5.85.01-9.16.73q-5.06 1.11-10.25 1.22 1.28-2.33 3.15-3.72c.26-.19.59-.27.91-.23zM125.3 158.34q1.28 4.86-.39 7.28-3.83 5.55-5.64 10.43-3.88 10.42-13.84 37.91-2.85 7.84-11.65 9.25 10.56-28.14 21.44-56.19 1.17-3.02 3.35-5.37c.1-.11.22-.19.35-.26zM75.74 158.52q-1.29 6.43-1.42 8.28c-.23 3.51.99 6.4 2.23 9.75q7.1 19.22 16.97 38.31l-2.25 6.3c-.15.42-.74.43-.91.02q-11.9-28.42-23.16-56.71c-.79-1.98.56-3.49 2.63-3.78q3.01-.41 5.91-2.17ZM409.89 199.36q11.26-19.66 25.46-38.53l2.37-.56c.35-.09.69.18.68.54l-.02 1.24c0 .2.1.39.26.5q.05.03.35-.14c.17-.09.37 0 .41.18q.19.88-.16 1.35-5.38 7.15-6.05 8.23c-8.23 13.19-11.26 18.26-17.08 25.92q-2.37 3.12-6.72 12.5c-.06.12-.17.21-.3.25q-.46.13-.74-.05a.45.45 0 0 1-.17-.56q2.84-5.9 1.71-10.87ZM152.73 160.48l-.62.3q-.06-.21.62-.3ZM137.11 165.99q-2.04-2.4-2.83-5.36 3.02 1.65 2.83 5.36ZM110.72 168.01l-3-6.96q4.39 2.06 3 6.96ZM478.05 185.57q-5.58 1.48-11.69 1.51c-.53 0-.91-.52-.75-1.02.93-2.93 1.6-6.47-.09-9.36q4.47 2.45 7.56 6.73 1.08 1.5 4.97 2.14ZM505 192.87q-5.88 2.18-7.83-2.27c-.87-2.01-.71-4.87-1.81-6.93-2.21-4.14-9.11 1.77-11.06 3.62a.28.28 0 0 1-.44-.07q-.12-.23.05-.45 2.98-3.79 2.94-7.67 2.16 1.49 5.05 2.24 2.68.71 4.06 1.66 2.36 1.64 3.29 3.02 2.46 3.66 5.75 6.85ZM315.82 196.94c-3.72 1.3-8.95.31-7.14-5.08q1.51-4.52 4.3-8.75c.54-.82-.25-1.87-1.16-1.55q-1.4.48-2.29-1.14 5.37.44 6.71 5.14.45 1.59.02 4.01c-.48 2.66-.96 4.25-.44 7.37ZM343.84 197.26c-4.24.95-10.22 1.42-9.31-4.78q1.12-7.57 8.28-10.77c.69-.31 1.49-.07 1.91.55q.14.22.34.77c.44 1.17 2.06 1.25 2.52.13q.62-1.5-.12-2.69 2.87 1.82 4.23 4.99c.14.32-.04.7-.38.79-4.24 1.16-13.07 5.08-7.47 11.01ZM392.69 196.54q-3.11 1.16-5.35-.04c-1-.53-1.56-1.66-1.4-2.83.63-4.66 2.53-7.3 5.05-11.29.28-.43.1-1.01-.37-1.23q-.79-.37-1.65.06c-.35.17-.76.1-1.03-.17l-.7-.72 3.75.08c.24 0 .47.08.66.23l3.62 2.84c.64.49.91 1.33.68 2.11zM278.44 184.77q-5.49 7.63-12.2 12.68c-.08.06-.17.11-.26.15l-.43.17c-.49.2-.98-.27-.82-.77q2.8-8.59 7.1-16.29 3.71 1.33 6.61 4.06ZM155.28 237.25q-6.6.26-6.79-5.75-.46-14.61-.04-48.23 2.64 4.83 2.07 10.46c-.01.09.07.17.11.11q.02-.03.07-.03c.05 0 .09-.04.09-.08l-.02-9.11c0-.1.07-.19.17-.2.1-.02.2.04.23.14 1.65 5.58-.11 11.73-.05 17.63q.01.84 1.72 5.8c.42 1.23.71 2.5.87 3.79.86 7.05-.58 16.96 1.57 25.47ZM431.68 183.5c4.74 1.47 4.19 4.79 3.51 8.7-.3 1.71.59 2.4 2.17 2.57q-4.51 2.33-9.71 2.36c-.67.01-1.24-.5-1.32-1.17-.4-3.39 3.41-9.74 5.35-12.46Z" vector-effect="non-scaling-stroke"/><path d="M495.02 192.14c-6.78-1.1-8.14 9.22-17.12 5.61 4.3-4.6 8.36-9.33 13.83-12.72.7-.44 1.63-.05 1.82.76zM289.64 194.07q-4.45-2.29-7.22-6.22l9.7-.16c.19 0 .3.21.19.36q-2.08 2.94-2.67 6.02ZM475.7 196.67c-6.08-5.87-10.93 4.64-16.31 5.85q-2.9.66-5.37-1.55 6.01-3.74 9.63-10.73c.21-.41.64-.66 1.1-.64q7.54.31 14.74-1.8c.27-.08.49.2.37.45zM404.7 203.66q-5.08-.36-9.95.36c-3.56.53-8.55-3.35-10.54-6.18-.33-.46-.93-.64-1.45-.42q-3.58 1.48-7.01 1.64c-2.28.11-5.18-1.14-7.29-1.65-2.26-.54-4.82.17-7.11 1.26-7.78 3.69-16.5 7.49-24.49 2.73-5.64-3.36-7.32-2.23-13.57.35-6.63 2.74-12.02.33-17.09-3.93a.77.77 0 0 0-.87-.09c-4.55 2.47-8.7 3.28-13-.1 5.69-.67 8.9-4.5 13.13-7.28.23-.15.54 0 .56.28q.04.53-.11 2.89c-.34 5.42 4.54 7.3 9.11 6.23 5.75-1.34 11.11-5.44 16.23-9.11.39-.29.94.05.87.53-1.76 12.44 9.79 9.76 16.88 7.07q8.5-3.24 18.95-9.63c.35-.21.76.16.58.53l-1.16 2.36c-.02.04-.03.08-.04.13q-.89 4.38 3.22 4.88c.38.05.77 0 1.12-.13q6.1-2.23 11.89-7.54c.32-.29.82.01.72.43-.98 3.92-2.07 8.02 2.59 9.87 4.19 1.66 10.76-1.4 14.51-3.52q6.62-3.75 11.11-6.54c.18-.12.4.1.29.29zM450.23 197.86q-4.47 1.35-8.85 2.98-4.89 1.82-7.14 1.76-3.78-.1-6.82-2.57 9.82-1.09 18.95-6.67 2.93-1.79 5.58-3.43c.44-.28.95.25.65.68q-2.42 3.51-2.37 7.25ZM277.77 189.91c1.66 5.52.35 11.49-5.94 12.42q-3.29.5-6.25-1.47 6.79-3.93 12.19-10.95Z" vector-effect="non-scaling-stroke"/><path d="M488.74 195.97q1.38-1.66 2.98-3.08.03-.03.07-.03c.04 0 .06.06.03.09zM513.14 191.44c-.58 3.59-2.16 7.51-6.05 8.06q-5.06.72-8.84-3.15a.097.097 0 0 1 0-.14c.06-.06.15-.08.21-.03 3.2 2.32 7.37 3.77 10.69 1.66 1.57-1 2.87-4.32 3.69-6.15q.29-.09.3-.25Z" vector-effect="non-scaling-stroke"/><path d="M508.63 194.13q1.19 1.53.64 2.35c-1.54 2.35-6.54.62-8.31-.3q3.98-.39 7.67-2.05ZM488.74 195.97l-3.99 3.84zM402.55 210.68q.89.32 2.11.32 1.96.24 3.52 1.32c.45.31 1.07.16 1.32-.32l6.98-13.28c.08-.15.26-.21.42-.14l.01.01c.15.1.21.29.13.45l-6.22 12.95c-.12.25-.35.42-.62.47l-2.47.42c-.35.06-.71-.02-.98-.24q-1.04-.82-2.03-1.2a.354.354 0 0 0-.43.16c-.09.15-.05.34.09.45l2.8 2.2c.25.19.58.25.89.14l2.37-.86c.34-.12.62-.37.77-.7l2.8-5.88c.03-.07.12-.11.2-.09l.01.01c.1.04.15.15.11.26q-2.07 5.19-2.69 5.96-2.59 3.2-5.87 1.04c-.09-.06-.16-.13-.23-.2zM483 200.81c-.11-.03-1.78-.51-1.77-.53q.89.24 1.77.53ZM484.75 199.81l-1.75 1zM364.2 229.71l-4.92 11.48c-.08.18-.34.18-.42-.01l-8.76-20.88c6.37 2 8.17 7.65 10.4 13.22.09.24.37.36.61.27l.31-.11c.41-.15.59-.63.38-1.02-3.38-6.28-4.6-12.42-12.69-14.29q-1.25-.51-2.83-.03l1.52-.93c.28-.17.62-.22.94-.13q3.88 1.07 6.97 3.48c3.43 2.69 3.66 8.22 8.49 8.95Z" vector-effect="non-scaling-stroke"/><path d="m357.6 245 2.41.03c.32.01.61-.18.73-.47l11.06-25.87a.332.332 0 0 0-.29-.46l-2.3-.11q2.91-1.88 6.65 1.74 3.18 3.07 1.32 7.62-3.6 8.78-6.25 14.49c-2.02 4.36-6.89 5.87-11.57 6.38-.08.01-.15-.04-.16-.11v-.01c-.01-.06.04-.12.1-.13 4.95-1.15 8.36-3.22 10.83-8.01 2.84-5.49 5.63-11.21 6.33-17.9.04-.36-.11-.72-.39-.96q-1.01-.86-2.69-.74c-.43.03-.8-.32-.8-.75v-1.13c0-.21-.22-.36-.42-.29l-.24.09c-.07.02-.11.1-.09.17l1.83 5.06c.58 1.63.61 3.4.08 5.05q-1.52 4.73-4.47 10.57c-2.62 5.19-5.97 7.59-11.67 5.74ZM323.29 245.25q1.55.21 1.56-1.25.14-13.11-.12-25.71 4.99 3.03 4.97 8.46-.03 6.65-3.09 13.51c-.14.31-.37.57-.66.75q-1.64.98-.89 3.27c.21.64-.19 1.3-.82 1.35q-.44.03-.95-.38ZM438.7 244.53l1.34.42c.75.24 1.5-.32 1.5-1.1l-.12-25.15q4.52 4.05 5.22 8.9.52 3.57.17 17.7c-.01.2-.06.39-.16.56q-.89 1.5-1.55 1.95c-.37.26-.84.33-1.27.19q-3.25-1.03-5.13-3.47ZM395.6 245.36l-.03-26.56q3.87 2.76 4.81 6.29 3.12 11.71-4.78 20.27ZM288.04 231.76l-.06-12.79c3.49 4.4 5.81 8.49.06 12.79ZM473.87 242.36q-10.76-3.23-8.42-13.91 1.04-4.78 6.88-7.34 4.69-2.07 10.89 1.45.42.25.6.31.19.07.71.02c.89-.09 1.34-1.11.81-1.82q-.41-.55-1.09-.94l4.1 3.09c.2.15.16.46-.07.55q-2.6 1.08-2.94 1.15c-3.38.73-7.7 1.05-9.96 2.83-4.84 3.81-3.63 9.39-1.51 14.61ZM438.7 230.22l.12 7.8c.01.64-.8.92-1.19.41l-12.89-16.9c5.6 2.72 8.79 7.95 12.39 12.61.13.16.38.16.51 0l.17-.22c.09-.11.08-.27-.01-.37q-4.36-4.71-8.1-10.61c-.02-.03-.01-.07.01-.09s.05-.02.07 0q.04.05.08.04c.04-.01.08.01.1.04q1.43 2.13 4.5 5.86 1.88 2.27 4.24 1.43ZM437.45 242.98l-7.64-8.24c-.33-.36-.93-.15-.98.33-.45 4.23-.81 8.26-3.15 11.85-.14.23-.44.29-.67.15l-2.58-1.61-.01-20.86c0-.39.5-.56.74-.25zM92.49 226.78q.01.97-.42 1.26-.06-.75.42-1.26ZM89.81 234.04l1.7-4.57q-.11 2.62-1.7 4.57ZM284.89 231.04l.02 1.25zM134.18 239.42l-4.11-.06zM185.66 239.52q-5.21 2.33-6.84 2.59-7.81 1.25-9.27 1.46-7.91 1.1-14.79-.59-2.65-.66-4.52-.66c-4.25 0-7.21.63-10.79-2.84zM483.97 243.48q-.83 1.21-1.35 1.55c-.32.21-.44.62-.27.96q.02.02.09.14c.16.29.04.66-.26.79-5.79 2.58-11.49.06-15.1-4.75q6.82 5.41 16.89 1.31ZM294.8 245.16q-.59.28-1.08-.02.58-.16 1.08.02Z" vector-effect="non-scaling-stroke"/></g><g fill="none" stroke="#040401" stroke-opacity=".204"><path d="M462.96 178.62c.4-.16.84.1.9.52q.45 3.09-1.26 6.76c-.17.35-.56.52-.92.4-4.95-1.62-1.57-6.53 1.28-7.68ZM370.8 193.68c-.89.18-1.59-.77-1.13-1.55 2.36-4.06 9.06-11.62 14.25-11.19 1.12.09 1.9 1.1 1.63 2.11-.98 3.75-11.95 10.02-14.75 10.63ZM293.5 194.76c-.89.22-1.62-.71-1.19-1.51 2.22-4.17 8.68-12.02 13.91-11.78 1.13.05 1.95 1.04 1.72 2.06-.85 3.8-11.64 10.52-14.44 11.23ZM460.65 188.66c.32.2.42.63.21.95l-.14.24c-3.14 5.01-6.47 8.58-7.44 7.98l-.21-.13c-.97-.61.78-5.17 3.92-10.19l.14-.23c.21-.33.63-.42.95-.22z" vector-effect="non-scaling-stroke"/></g></svg>