<?xml version="1.0" encoding="UTF-8" standalone="no"?>
<!DOCTYPE svg PUBLIC "-//W3C//DTD SVG 1.1//EN" "http://www.w3.org/Graphics/SVG/1.1/DTD/svg11.dtd">
<svg xmlns="http://www.w3.org/2000/svg" version="1.1" viewBox="0.00 0.00 612.00 408.00">
<g fill="none" stroke-width="1.00" stroke="#a8792e">
<path vector-effect="non-scaling-stroke" d="
  M 465.19 122.84
  L 442.36 152.23
  C 442.15 152.50 442.31 152.90 442.65 152.96
  L 453.28 154.72
  Q 468.42 157.15 481.75 156.23
  Q 505.43 154.60 524.23 139.15
  C 524.74 138.73 525.47 138.76 525.94 139.22
  L 525.97 139.25
  C 526.44 139.71 526.43 140.46 525.94 140.82
  L 515.67 148.40
  C 499.64 157.67 482.55 160.29 464.20 158.55
  L 455.96 157.70
  L 440.61 155.70
  C 440.29 155.66 439.96 155.74 439.70 155.93
  Q 437.83 157.32 436.55 159.65
  L 435.35 160.83
  Q 421.15 179.70 409.89 199.36
  L 404.66 211.00
  Q 403.44 211.00 402.55 210.68
  Q 402.67 207.42 404.70 203.66
  L 412.78 189.37
  C 412.89 189.18 412.67 188.96 412.49 189.08
  Q 408.00 191.87 401.38 195.62
  C 397.63 197.74 391.06 200.80 386.87 199.14
  C 382.21 197.29 383.30 193.19 384.28 189.27
  C 384.38 188.85 383.88 188.55 383.56 188.84
  Q 377.77 194.15 371.67 196.38
  C 371.32 196.51 370.93 196.56 370.55 196.51
  Q 366.44 196.01 367.33 191.63
  C 367.34 191.58 367.35 191.54 367.37 191.50
  L 368.53 189.14
  C 368.71 188.77 368.30 188.40 367.95 188.61
  Q 357.50 195.00 349.00 198.24
  C 341.91 200.93 330.36 203.61 332.12 191.17
  C 332.19 190.69 331.64 190.35 331.25 190.64
  C 326.13 194.31 320.77 198.41 315.02 199.75
  C 310.45 200.82 305.57 198.94 305.91 193.52
  Q 306.06 191.16 306.02 190.63
  C 306.00 190.35 305.69 190.20 305.46 190.35
  C 301.23 193.13 298.02 196.96 292.33 197.63
  Q 289.88 196.65 289.64 194.07
  Q 290.23 190.99 292.31 188.05
  C 292.42 187.90 292.31 187.69 292.12 187.69
  L 282.42 187.85
  Q 281.53 187.47 280.59 187.53
  C 280.27 187.55 279.97 187.69 279.74 187.92
  L 277.77 189.91
  Q 272.37 196.93 265.58 200.86
  C 260.39 200.62 262.35 195.12 263.54 192.28
  Q 267.86 181.88 271.01 176.70
  Q 271.34 176.15 272.40 176.37
  C 272.97 176.50 273.29 177.11 273.07 177.65
  L 271.83 180.71
  Q 267.53 188.41 264.73 197.00
  C 264.57 197.50 265.06 197.97 265.55 197.77
  L 265.98 197.60
  C 266.07 197.56 266.16 197.51 266.24 197.45
  Q 272.95 192.40 278.44 184.77
  Q 287.65 186.06 292.75 184.53
  Q 295.95 183.56 304.34 178.83
  C 304.62 178.68 304.93 178.60 305.25 178.60
  Q 307.63 178.64 309.53 180.42
  Q 310.42 182.04 311.82 181.56
  C 312.73 181.24 313.52 182.29 312.98 183.11
  Q 310.19 187.34 308.68 191.86
  C 306.87 197.25 312.10 198.24 315.82 196.94
  Q 327.53 191.45 336.74 182.62
  C 339.20 180.26 344.64 176.73 347.46 180.47
  Q 348.20 181.66 347.58 183.16
  C 347.12 184.28 345.50 184.20 345.06 183.03
  Q 344.86 182.48 344.72 182.26
  C 344.30 181.64 343.50 181.40 342.81 181.71
  Q 335.65 184.91 334.53 192.48
  C 333.62 198.68 339.60 198.21 343.84 197.26
  Q 351.54 194.86 358.82 190.85
  Q 368.60 185.46 378.31 179.94
  C 381.73 178.00 384.58 177.07 387.24 180.32
  L 387.94 181.04
  C 388.21 181.31 388.62 181.38 388.97 181.21
  Q 389.83 180.78 390.62 181.15
  C 391.09 181.37 391.27 181.95 390.99 182.38
  C 388.47 186.37 386.57 189.01 385.94 193.67
  C 385.78 194.84 386.34 195.97 387.34 196.50
  Q 389.58 197.70 392.69 196.54
  Q 396.72 195.44 400.38 193.38
  Q 408.30 188.90 415.63 183.83
  C 416.34 183.34 416.95 182.73 417.44 182.02
  L 431.51 161.49
  L 435.91 155.78
  C 436.10 155.54 435.96 155.19 435.66 155.14
  L 419.07 152.50
  L 382.64 146.59
  C 382.00 146.49 381.51 146.00 381.43 145.38
  L 381.42 145.34
  C 381.35 144.78 381.79 144.28 382.36 144.29
  Q 388.20 144.40 394.32 145.41
  Q 417.09 149.14 434.92 152.44
  Q 436.71 152.77 438.18 152.53
  C 438.55 152.47 438.88 152.28 439.11 151.98
  L 466.60 116.88
  C 466.94 116.44 467.55 116.31 468.04 116.56
  L 468.49 116.80
  C 468.90 117.02 469.02 117.55 468.75 117.92
  L 465.19 122.84
  Z
  M 370.80 193.68
  C 373.60 193.07 384.57 186.80 385.55 183.05
  C 385.82 182.04 385.04 181.03 383.92 180.94
  C 378.73 180.51 372.03 188.07 369.67 192.13
  C 369.21 192.91 369.91 193.86 370.80 193.68
  Z
  M 293.50 194.76
  C 296.30 194.05 307.09 187.33 307.94 183.53
  C 308.17 182.51 307.35 181.52 306.22 181.47
  C 300.99 181.23 294.53 189.08 292.31 193.25
  C 291.88 194.05 292.61 194.98 293.50 194.76
  Z"
/>
<path vector-effect="non-scaling-stroke" d="
  M 226.33 275.73
  C 226.38 276.37 225.64 276.77 225.13 276.37
  L 223.99 275.47
  C 223.33 274.96 222.95 274.17 222.95 273.34
  L 222.95 120.55
  C 222.95 119.99 223.48 119.59 224.02 119.73
  L 224.31 119.80
  C 225.05 119.91 225.59 120.55 225.58 121.29
  Q 225.30 174.87 225.49 250.25
  Q 225.52 264.07 226.33 275.73
  Z"
/>
<path vector-effect="non-scaling-stroke" d="
  M 125.30 158.34
  L 118.92 161.39
  C 118.79 161.46 118.67 161.54 118.57 161.65
  Q 116.39 164.00 115.22 167.02
  Q 104.34 195.07 93.78 223.21
  L 92.49 226.78
  Q 92.01 227.29 92.07 228.04
  L 91.51 229.47
  L 89.81 234.04
  L 87.83 239.04
  C 87.76 239.20 87.65 239.35 87.51 239.47
  Q 87.18 239.73 86.83 239.80
  C 86.08 239.97 85.31 239.57 85.02 238.86
  Q 65.91 193.29 54.06 164.73
  Q 53.51 163.42 51.51 161.27
  C 51.44 161.20 51.36 161.14 51.26 161.09
  L 46.35 158.74
  C 46.13 158.63 46.20 158.30 46.45 158.30
  L 75.74 158.52
  Q 72.84 160.28 69.83 160.69
  C 67.76 160.98 66.41 162.49 67.20 164.47
  Q 78.46 192.76 90.36 221.18
  C 90.53 221.59 91.12 221.58 91.27 221.16
  L 93.52 214.86
  L 110.72 168.01
  Q 112.11 163.11 107.72 161.05
  L 102.43 159.36
  C 102.13 159.26 101.94 158.96 101.99 158.65
  C 102.04 158.34 102.31 158.11 102.63 158.11
  L 125.30 158.34
  Z"
/>
<path vector-effect="non-scaling-stroke" d="
  M 152.73 160.48
  Q 152.05 160.57 152.11 160.78
  Q 148.70 162.05 148.64 164.63
  Q 148.43 173.97 148.45 183.27
  Q 148.03 216.89 148.49 231.50
  Q 148.68 237.51 155.28 237.25
  C 166.74 237.40 176.55 237.23 182.59 225.85
  Q 185.12 221.07 186.15 215.72
  C 186.22 215.38 186.71 215.36 186.80 215.70
  Q 187.20 217.09 187.08 219.50
  Q 187.00 221.12 186.35 233.00
  C 186.33 233.31 186.35 233.61 186.41 233.92
  Q 187.27 238.15 185.66 239.52
  L 139.45 239.48
  L 134.18 239.42
  L 130.07 239.36
  Q 129.66 239.46 129.45 239.19
  C 129.19 238.85 129.40 238.36 129.82 238.32
  C 134.59 237.83 137.11 236.60 137.12 231.38
  Q 137.19 198.64 137.11 165.99
  Q 137.30 162.28 134.28 160.63
  L 129.55 159.19
  C 129.35 159.13 129.22 158.93 129.25 158.72
  C 129.28 158.52 129.46 158.36 129.67 158.36
  Q 151.66 158.25 155.51 158.41
  Q 156.24 158.44 157.36 158.96
  C 157.67 159.10 157.61 159.56 157.28 159.62
  L 152.73 160.48
  Z"
/>
<path vector-effect="non-scaling-stroke" d="
  M 435.55 175.04
  C 436.40 175.88 436.65 177.56 435.30 178.05
  C 434.53 178.33 433.68 177.91 433.44 177.13
  Q 432.96 175.54 434.56 174.96
  L 435.55 175.04
  Z"
/>
<path vector-effect="non-scaling-stroke" d="
  M 465.52 176.70
  C 467.21 179.59 466.54 183.13 465.61 186.06
  C 465.45 186.56 465.83 187.08 466.36 187.08
  Q 472.47 187.05 478.05 185.57
  L 482.15 184.05
  C 482.45 183.94 482.69 183.72 482.84 183.43
  C 483.67 181.76 484.25 178.33 486.85 179.10
  Q 486.89 182.98 483.91 186.77
  Q 483.74 186.99 483.86 187.22
  C 483.94 187.38 484.17 187.42 484.30 187.29
  C 486.25 185.44 493.15 179.53 495.36 183.67
  C 496.46 185.73 496.30 188.59 497.17 190.60
  Q 499.12 195.05 505.00 192.87
  Q 511.94 189.76 518.36 184.62
  C 518.96 184.14 519.79 184.06 520.46 184.42
  L 520.54 184.46
  C 521.09 184.75 521.17 185.50 520.69 185.86
  L 513.14 191.44
  Q 513.13 191.60 512.84 191.69
  L 508.63 194.13
  Q 504.94 195.79 500.96 196.18
  Q 496.98 196.14 495.02 192.14
  L 493.55 185.79
  C 493.36 184.98 492.43 184.59 491.73 185.03
  C 486.26 188.42 482.20 193.15 477.90 197.75
  Q 475.65 197.89 475.70 196.67
  L 479.86 188.25
  C 479.98 188.00 479.76 187.72 479.49 187.80
  Q 472.29 189.91 464.75 189.60
  C 464.29 189.58 463.86 189.83 463.65 190.24
  Q 460.03 197.23 454.02 200.97
  Q 450.65 200.63 450.23 197.86
  Q 450.18 194.12 452.60 190.61
  C 452.90 190.18 452.39 189.65 451.95 189.93
  Q 449.30 191.57 446.37 193.36
  Q 437.24 198.94 427.42 200.03
  Q 423.33 198.27 423.65 194.70
  C 423.93 191.46 427.12 185.38 429.60 181.99
  C 430.14 181.26 431.16 181.13 431.79 181.72
  Q 432.22 182.13 431.68 183.50
  C 429.74 186.22 425.93 192.57 426.33 195.96
  C 426.41 196.63 426.98 197.14 427.65 197.13
  Q 432.85 197.10 437.36 194.77
  Q 447.54 190.61 456.04 183.53
  C 456.29 183.32 456.47 183.04 456.55 182.72
  C 457.49 178.79 461.17 174.63 465.52 176.70
  Z
  M 462.96 178.62
  C 460.11 179.77 456.73 184.68 461.68 186.30
  C 462.04 186.42 462.43 186.25 462.60 185.90
  Q 464.31 182.23 463.86 179.14
  C 463.80 178.72 463.36 178.46 462.96 178.62
  Z
  M 460.65 188.66
  L 458.08 187.06
  C 457.76 186.86 457.34 186.95 457.13 187.28
  L 456.99 187.51
  C 453.85 192.53 452.10 197.09 453.07 197.70
  L 453.28 197.83
  C 454.25 198.43 457.58 194.86 460.72 189.85
  L 460.86 189.61
  C 461.07 189.29 460.97 188.86 460.65 188.66
  Z"
/>
<path vector-effect="non-scaling-stroke" d="
  M 484.25 220.13
  Q 484.93 220.52 485.34 221.07
  C 485.87 221.78 485.42 222.80 484.53 222.89
  Q 484.01 222.94 483.82 222.87
  Q 483.64 222.81 483.22 222.56
  Q 477.02 219.04 472.33 221.11
  Q 466.49 223.67 465.45 228.45
  Q 463.11 239.13 473.87 242.36
  C 475.83 242.69 482.53 242.85 483.16 239.87
  C 483.17 239.82 483.18 239.76 483.18 239.71
  L 483.18 232.89
  C 483.18 232.26 483.69 231.75 484.32 231.75
  Q 485.41 231.75 485.77 232.29
  Q 485.84 232.39 486.00 233.76
  Q 486.91 241.29 483.97 243.48
  Q 473.90 247.58 467.08 242.17
  C 459.40 234.78 461.19 223.03 470.95 218.70
  Q 477.44 215.83 484.25 220.13
  Z"
/>
<path vector-effect="non-scaling-stroke" d="
  M 287.98 218.97
  L 288.04 231.76
  L 288.12 241.11
  C 288.13 241.75 288.65 242.26 289.29 242.26
  L 301.25 242.26
  C 301.99 242.26 302.66 242.73 302.91 243.43
  L 303.39 244.74
  C 303.54 245.16 303.21 245.60 302.76 245.58
  L 294.80 245.16
  Q 294.30 244.98 293.72 245.14
  L 285.93 244.92
  C 285.43 244.91 285.03 244.50 285.02 243.99
  L 284.91 232.29
  L 284.89 231.04
  L 284.96 218.94
  C 284.96 218.46 285.32 218.06 285.79 218.01
  Q 287.86 217.77 287.98 218.97
  Z"
/>
<path vector-effect="non-scaling-stroke" d="
  M 324.73 218.29
  Q 324.99 230.89 324.85 244.00
  Q 324.84 245.46 323.29 245.25
  Q 322.08 245.36 322.07 244.30
  Q 322.01 231.77 322.08 218.89
  Q 322.08 218.40 322.46 218.09
  Q 323.23 217.48 324.73 218.29
  Z"
/>
<path vector-effect="non-scaling-stroke" d="
  M 349.11 218.37
  L 350.10 220.30
  L 358.86 241.18
  C 358.94 241.37 359.20 241.37 359.28 241.19
  L 364.20 229.71
  L 369.21 218.12
  L 371.51 218.23
  C 371.74 218.24 371.89 218.48 371.80 218.69
  L 360.74 244.56
  C 360.62 244.85 360.33 245.04 360.01 245.03
  L 357.60 245.00
  L 346.28 218.34
  Q 347.86 217.86 349.11 218.37
  Z"
/>
<path vector-effect="non-scaling-stroke" d="
  M 395.57 218.80
  L 395.60 245.36
  Q 392.72 245.89 392.71 242.75
  Q 392.68 230.87 392.67 218.95
  C 392.67 218.56 392.96 218.22 393.35 218.14
  Q 395.34 217.75 395.57 218.80
  Z"
/>
<path vector-effect="non-scaling-stroke" d="
  M 424.74 221.53
  L 437.63 238.43
  C 438.02 238.94 438.83 238.66 438.82 238.02
  L 438.70 230.22
  L 438.75 219.18
  C 438.76 218.85 438.96 218.56 439.26 218.43
  Q 440.11 218.09 441.42 218.70
  L 441.54 243.85
  C 441.54 244.63 440.79 245.19 440.04 244.95
  L 438.70 244.53
  L 437.45 242.98
  L 423.16 224.35
  C 422.92 224.04 422.42 224.21 422.42 224.60
  L 422.43 245.46
  C 420.89 245.52 419.69 245.02 419.69 243.26
  Q 419.65 231.00 419.72 219.56
  C 419.73 218.21 421.42 217.59 422.29 218.63
  L 424.74 221.53
  Z"
/>
</g>
<g fill="none" stroke-width="1.00" stroke="#040401" stroke-opacity="0.204">
<path vector-effect="non-scaling-stroke" d="
  M 465.19 122.84
  Q 467.84 129.53 463.40 135.17
  Q 456.11 144.44 453.42 148.05
  Q 450.85 151.51 453.28 154.72
  L 442.65 152.96
  C 442.31 152.90 442.15 152.50 442.36 152.23
  L 465.19 122.84
  Z"
/>
<path vector-effect="non-scaling-stroke" d="
  M 515.67 148.40
  C 516.90 153.92 510.28 157.63 505.54 159.32
  C 488.84 165.27 472.19 164.31 454.58 161.74
  Q 453.10 161.53 445.22 161.36
  C 444.87 161.35 444.53 161.49 444.28 161.74
  C 440.26 165.85 436.13 169.89 435.55 175.04
  L 434.56 174.96
  Q 434.36 172.37 435.81 170.08
  C 439.67 163.97 442.89 158.78 450.80 158.60
  Q 457.74 158.45 464.32 159.57
  Q 469.12 160.39 482.86 159.88
  L 482.86 159.87
  C 476.73 160.02 470.11 160.52 464.20 158.55
  C 482.55 160.29 499.64 157.67 515.67 148.40
  Z"
/>
<path vector-effect="non-scaling-stroke" d="
  M 431.51 161.49
  L 419.07 152.50
  L 435.66 155.14
  C 435.96 155.19 436.10 155.54 435.91 155.78
  L 431.51 161.49
  Z"
/>
<path vector-effect="non-scaling-stroke" d="
  M 455.96 157.70
  C 452.78 157.68 450.11 157.71 446.80 158.43
  Q 441.74 159.54 436.55 159.65
  Q 437.83 157.32 439.70 155.93
  C 439.96 155.74 440.29 155.66 440.61 155.70
  L 455.96 157.70
  Z"
/>
<path vector-effect="non-scaling-stroke" d="
  M 125.30 158.34
  Q 126.58 163.20 124.91 165.62
  Q 121.08 171.17 119.27 176.05
  Q 115.39 186.47 105.43 213.96
  Q 102.58 221.80 93.78 223.21
  Q 104.34 195.07 115.22 167.02
  Q 116.39 164.00 118.57 161.65
  C 118.67 161.54 118.79 161.46 118.92 161.39
  L 125.30 158.34
  Z"
/>
<path vector-effect="non-scaling-stroke" d="
  M 75.74 158.52
  Q 74.45 164.95 74.32 166.80
  C 74.09 170.31 75.31 173.20 76.55 176.55
  Q 83.65 195.77 93.52 214.86
  L 91.27 221.16
  C 91.12 221.58 90.53 221.59 90.36 221.18
  Q 78.46 192.76 67.20 164.47
  C 66.41 162.49 67.76 160.98 69.83 160.69
  Q 72.84 160.28 75.74 158.52
  Z"
/>
<path vector-effect="non-scaling-stroke" d="
  M 409.89 199.36
  Q 421.15 179.70 435.35 160.83
  L 437.72 160.27
  C 438.07 160.18 438.41 160.45 438.40 160.81
  L 438.38 162.05
  C 438.38 162.25 438.48 162.44 438.64 162.55
  Q 438.69 162.58 438.99 162.41
  C 439.16 162.32 439.36 162.41 439.40 162.59
  Q 439.59 163.47 439.24 163.94
  Q 433.86 171.09 433.19 172.17
  C 424.96 185.36 421.93 190.43 416.11 198.09
  Q 413.74 201.21 409.39 210.59
  C 409.33 210.71 409.22 210.80 409.09 210.84
  Q 408.63 210.97 408.35 210.79
  C 408.16 210.67 408.09 210.43 408.18 210.23
  Q 411.02 204.33 409.89 199.36
  Z"
/>
<path vector-effect="non-scaling-stroke" d="
  M 152.73 160.48
  L 152.11 160.78
  Q 152.05 160.57 152.73 160.48
  Z"
/>
<path vector-effect="non-scaling-stroke" d="
  M 137.11 165.99
  Q 135.07 163.59 134.28 160.63
  Q 137.30 162.28 137.11 165.99
  Z"
/>
<path vector-effect="non-scaling-stroke" d="
  M 110.72 168.01
  L 107.72 161.05
  Q 112.11 163.11 110.72 168.01
  Z"
/>
<path vector-effect="non-scaling-stroke" d="
  M 478.05 185.57
  Q 472.47 187.05 466.36 187.08
  C 465.83 187.08 465.45 186.56 465.61 186.06
  C 466.54 183.13 467.21 179.59 465.52 176.70
  Q 469.99 179.15 473.08 183.43
  Q 474.16 184.93 478.05 185.57
  Z"
/>
<path vector-effect="non-scaling-stroke" d="
  M 505.00 192.87
  Q 499.12 195.05 497.17 190.60
  C 496.30 188.59 496.46 185.73 495.36 183.67
  C 493.15 179.53 486.25 185.44 484.30 187.29
  C 484.17 187.42 483.94 187.38 483.86 187.22
  Q 483.74 186.99 483.91 186.77
  Q 486.89 182.98 486.85 179.10
  Q 489.01 180.59 491.90 181.34
  Q 494.58 182.05 495.96 183.00
  Q 498.32 184.64 499.25 186.02
  Q 501.71 189.68 505.00 192.87
  Z"
/>
<path vector-effect="non-scaling-stroke" d="
  M 315.82 196.94
  C 312.10 198.24 306.87 197.25 308.68 191.86
  Q 310.19 187.34 312.98 183.11
  C 313.52 182.29 312.73 181.24 311.82 181.56
  Q 310.42 182.04 309.53 180.42
  Q 314.90 180.86 316.24 185.56
  Q 316.69 187.15 316.26 189.57
  C 315.78 192.23 315.30 193.82 315.82 196.94
  Z"
/>
<path vector-effect="non-scaling-stroke" d="
  M 343.84 197.26
  C 339.60 198.21 333.62 198.68 334.53 192.48
  Q 335.65 184.91 342.81 181.71
  C 343.50 181.40 344.30 181.64 344.72 182.26
  Q 344.86 182.48 345.06 183.03
  C 345.50 184.20 347.12 184.28 347.58 183.16
  Q 348.20 181.66 347.46 180.47
  Q 350.33 182.29 351.69 185.46
  C 351.83 185.78 351.65 186.16 351.31 186.25
  C 347.07 187.41 338.24 191.33 343.84 197.26
  Z"
/>
<path vector-effect="non-scaling-stroke" d="
  M 392.69 196.54
  Q 389.58 197.70 387.34 196.50
  C 386.34 195.97 385.78 194.84 385.94 193.67
  C 386.57 189.01 388.47 186.37 390.99 182.38
  C 391.27 181.95 391.09 181.37 390.62 181.15
  Q 389.83 180.78 388.97 181.21
  C 388.62 181.38 388.21 181.31 387.94 181.04
  L 387.24 180.32
  L 390.99 180.40
  C 391.23 180.40 391.46 180.48 391.65 180.63
  L 395.27 183.47
  C 395.91 183.96 396.18 184.80 395.95 185.58
  L 392.69 196.54
  Z"
/>
<path vector-effect="non-scaling-stroke" d="
  M 278.44 184.77
  Q 272.95 192.40 266.24 197.45
  C 266.16 197.51 266.07 197.56 265.98 197.60
  L 265.55 197.77
  C 265.06 197.97 264.57 197.50 264.73 197.00
  Q 267.53 188.41 271.83 180.71
  Q 275.54 182.04 278.44 184.77
  Z"
/>
<path vector-effect="non-scaling-stroke" d="
  M 155.28 237.25
  Q 148.68 237.51 148.49 231.50
  Q 148.03 216.89 148.45 183.27
  Q 151.09 188.10 150.52 193.73
  C 150.51 193.82 150.59 193.90 150.63 193.84
  Q 150.65 193.81 150.70 193.81
  C 150.75 193.81 150.79 193.77 150.79 193.73
  L 150.77 184.62
  C 150.77 184.52 150.84 184.43 150.94 184.42
  C 151.04 184.40 151.14 184.46 151.17 184.56
  C 152.82 190.14 151.06 196.29 151.12 202.19
  Q 151.13 203.03 152.84 207.99
  C 153.26 209.22 153.55 210.49 153.71 211.78
  C 154.57 218.83 153.13 228.74 155.28 237.25
  Z"
/>
<path vector-effect="non-scaling-stroke" d="
  M 431.68 183.50
  C 436.42 184.97 435.87 188.29 435.19 192.20
  C 434.89 193.91 435.78 194.60 437.36 194.77
  Q 432.85 197.10 427.65 197.13
  C 426.98 197.14 426.41 196.63 426.33 195.96
  C 425.93 192.57 429.74 186.22 431.68 183.50
  Z"
/>
<path vector-effect="non-scaling-stroke" d="
  M 495.02 192.14
  C 488.24 191.04 486.88 201.36 477.90 197.75
  C 482.20 193.15 486.26 188.42 491.73 185.03
  C 492.43 184.59 493.36 184.98 493.55 185.79
  L 495.02 192.14
  Z"
/>
<path vector-effect="non-scaling-stroke" d="
  M 289.64 194.07
  Q 285.19 191.78 282.42 187.85
  L 292.12 187.69
  C 292.31 187.69 292.42 187.90 292.31 188.05
  Q 290.23 190.99 289.64 194.07
  Z"
/>
<path vector-effect="non-scaling-stroke" d="
  M 475.70 196.67
  C 469.62 190.80 464.77 201.31 459.39 202.52
  Q 456.49 203.18 454.02 200.97
  Q 460.03 197.23 463.65 190.24
  C 463.86 189.83 464.29 189.58 464.75 189.60
  Q 472.29 189.91 479.49 187.80
  C 479.76 187.72 479.98 188.00 479.86 188.25
  L 475.70 196.67
  Z"
/>
<path vector-effect="non-scaling-stroke" d="
  M 404.70 203.66
  Q 399.62 203.30 394.75 204.02
  C 391.19 204.55 386.20 200.67 384.21 197.84
  C 383.88 197.38 383.28 197.20 382.76 197.42
  Q 379.18 198.90 375.75 199.06
  C 373.47 199.17 370.57 197.92 368.46 197.41
  C 366.20 196.87 363.64 197.58 361.35 198.67
  C 353.57 202.36 344.85 206.16 336.86 201.40
  C 331.22 198.04 329.54 199.17 323.29 201.75
  C 316.66 204.49 311.27 202.08 306.20 197.82
  C 305.96 197.61 305.61 197.58 305.33 197.73
  C 300.78 200.20 296.63 201.01 292.33 197.63
  C 298.02 196.96 301.23 193.13 305.46 190.35
  C 305.69 190.20 306.00 190.35 306.02 190.63
  Q 306.06 191.16 305.91 193.52
  C 305.57 198.94 310.45 200.82 315.02 199.75
  C 320.77 198.41 326.13 194.31 331.25 190.64
  C 331.64 190.35 332.19 190.69 332.12 191.17
  C 330.36 203.61 341.91 200.93 349.00 198.24
  Q 357.50 195.00 367.95 188.61
  C 368.30 188.40 368.71 188.77 368.53 189.14
  L 367.37 191.50
  C 367.35 191.54 367.34 191.58 367.33 191.63
  Q 366.44 196.01 370.55 196.51
  C 370.93 196.56 371.32 196.51 371.67 196.38
  Q 377.77 194.15 383.56 188.84
  C 383.88 188.55 384.38 188.85 384.28 189.27
  C 383.30 193.19 382.21 197.29 386.87 199.14
  C 391.06 200.80 397.63 197.74 401.38 195.62
  Q 408.00 191.87 412.49 189.08
  C 412.67 188.96 412.89 189.18 412.78 189.37
  L 404.70 203.66
  Z"
/>
<path vector-effect="non-scaling-stroke" d="
  M 450.23 197.86
  Q 445.76 199.21 441.38 200.84
  Q 436.49 202.66 434.24 202.60
  Q 430.46 202.50 427.42 200.03
  Q 437.24 198.94 446.37 193.36
  Q 449.30 191.57 451.95 189.93
  C 452.39 189.65 452.90 190.18 452.60 190.61
  Q 450.18 194.12 450.23 197.86
  Z"
/>
<path vector-effect="non-scaling-stroke" d="
  M 277.77 189.91
  C 279.43 195.43 278.12 201.40 271.83 202.33
  Q 268.54 202.83 265.58 200.86
  Q 272.37 196.93 277.77 189.91
  Z"
/>
<path vector-effect="non-scaling-stroke" d="
  M 488.74 195.97
  Q 490.12 194.31 491.72 192.89
  Q 491.75 192.86 491.79 192.86
  C 491.83 192.86 491.85 192.92 491.82 192.95
  L 488.74 195.97
  Z"
/>
<path vector-effect="non-scaling-stroke" d="
  M 513.14 191.44
  C 512.56 195.03 510.98 198.95 507.09 199.50
  Q 502.03 200.22 498.25 196.35
  C 498.21 196.31 498.21 196.25 498.25 196.21
  C 498.31 196.15 498.40 196.13 498.46 196.18
  C 501.66 198.50 505.83 199.95 509.15 197.84
  C 510.72 196.84 512.02 193.52 512.84 191.69
  Q 513.13 191.60 513.14 191.44
  Z"
/>
<path vector-effect="non-scaling-stroke" d="
  M 508.63 194.13
  Q 509.82 195.66 509.27 196.48
  C 507.73 198.83 502.73 197.10 500.96 196.18
  Q 504.94 195.79 508.63 194.13
  Z"
/>
<path vector-effect="non-scaling-stroke" d="
  M 488.74 195.97
  L 484.75 199.81
  L 488.74 195.97
  Z"
/>
<path vector-effect="non-scaling-stroke" d="
  M 402.55 210.68
  Q 403.44 211.00 404.66 211.00
  Q 406.62 211.24 408.18 212.32
  C 408.63 212.63 409.25 212.48 409.50 212.00
  L 416.48 198.72
  C 416.56 198.57 416.74 198.51 416.90 198.58
  L 416.91 198.59
  C 417.06 198.69 417.12 198.88 417.04 199.04
  L 410.82 211.99
  C 410.70 212.24 410.47 212.41 410.20 212.46
  L 407.73 212.88
  C 407.38 212.94 407.02 212.86 406.75 212.64
  Q 405.71 211.82 404.72 211.44
  C 404.56 211.38 404.37 211.45 404.29 211.60
  C 404.20 211.75 404.24 211.94 404.38 212.05
  L 407.18 214.25
  C 407.43 214.44 407.76 214.50 408.07 214.39
  L 410.44 213.53
  C 410.78 213.41 411.06 213.16 411.21 212.83
  L 414.01 206.95
  C 414.04 206.88 414.13 206.84 414.21 206.86
  L 414.22 206.87
  C 414.32 206.91 414.37 207.02 414.33 207.13
  Q 412.26 212.32 411.64 213.09
  Q 409.05 216.29 405.77 214.13
  C 405.68 214.07 405.61 214.00 405.54 213.93
  L 402.55 210.68
  Z"
/>
<path vector-effect="non-scaling-stroke" d="
  M 483.00 200.81
  C 482.89 200.78 481.22 200.30 481.23 200.28
  Q 482.12 200.52 483.00 200.81
  Z"
/>
<path vector-effect="non-scaling-stroke" d="
  M 484.75 199.81
  L 483.00 200.81
  L 484.75 199.81
  Z"
/>
<path vector-effect="non-scaling-stroke" d="
  M 364.20 229.71
  L 359.28 241.19
  C 359.20 241.37 358.94 241.37 358.86 241.18
  L 350.10 220.30
  C 356.47 222.30 358.27 227.95 360.50 233.52
  C 360.59 233.76 360.87 233.88 361.11 233.79
  L 361.42 233.68
  C 361.83 233.53 362.01 233.05 361.80 232.66
  C 358.42 226.38 357.20 220.24 349.11 218.37
  Q 347.86 217.86 346.28 218.34
  L 347.80 217.41
  C 348.08 217.24 348.42 217.19 348.74 217.28
  Q 352.62 218.35 355.71 220.76
  C 359.14 223.45 359.37 228.98 364.20 229.71
  Z"
/>
<path vector-effect="non-scaling-stroke" d="
  M 357.60 245.00
  L 360.01 245.03
  C 360.33 245.04 360.62 244.85 360.74 244.56
  L 371.80 218.69
  C 371.89 218.48 371.74 218.24 371.51 218.23
  L 369.21 218.12
  Q 372.12 216.24 375.86 219.86
  Q 379.04 222.93 377.18 227.48
  Q 373.58 236.26 370.93 241.97
  C 368.91 246.33 364.04 247.84 359.36 248.35
  C 359.28 248.36 359.21 248.31 359.20 248.24
  L 359.20 248.23
  C 359.19 248.17 359.24 248.11 359.30 248.10
  C 364.25 246.95 367.66 244.88 370.13 240.09
  C 372.97 234.60 375.76 228.88 376.46 222.19
  C 376.50 221.83 376.35 221.47 376.07 221.23
  Q 375.06 220.37 373.38 220.49
  C 372.95 220.52 372.58 220.17 372.58 219.74
  L 372.58 218.61
  C 372.58 218.40 372.36 218.25 372.16 218.32
  L 371.92 218.41
  C 371.85 218.43 371.81 218.51 371.83 218.58
  L 373.66 223.64
  C 374.24 225.27 374.27 227.04 373.74 228.69
  Q 372.22 233.42 369.27 239.26
  C 366.65 244.45 363.30 246.85 357.60 245.00
  Z"
/>
<path vector-effect="non-scaling-stroke" d="
  M 323.29 245.25
  Q 324.84 245.46 324.85 244.00
  Q 324.99 230.89 324.73 218.29
  Q 329.72 221.32 329.70 226.75
  Q 329.67 233.40 326.61 240.26
  C 326.47 240.57 326.24 240.83 325.95 241.01
  Q 324.31 241.99 325.06 244.28
  C 325.27 244.92 324.87 245.58 324.24 245.63
  Q 323.80 245.66 323.29 245.25
  Z"
/>
<path vector-effect="non-scaling-stroke" d="
  M 438.70 244.53
  L 440.04 244.95
  C 440.79 245.19 441.54 244.63 441.54 243.85
  L 441.42 218.70
  Q 445.94 222.75 446.64 227.60
  Q 447.16 231.17 446.81 245.30
  C 446.80 245.50 446.75 245.69 446.65 245.86
  Q 445.76 247.36 445.10 247.81
  C 444.73 248.07 444.26 248.14 443.83 248.00
  Q 440.58 246.97 438.70 244.53
  Z"
/>
<path vector-effect="non-scaling-stroke" d="
  M 395.60 245.36
  L 395.57 218.80
  Q 399.44 221.56 400.38 225.09
  Q 403.50 236.80 395.60 245.36
  Z"
/>
<path vector-effect="non-scaling-stroke" d="
  M 288.04 231.76
  L 287.98 218.97
  C 291.47 223.37 293.79 227.46 288.04 231.76
  Z"
/>
<path vector-effect="non-scaling-stroke" d="
  M 473.87 242.36
  Q 463.11 239.13 465.45 228.45
  Q 466.49 223.67 472.33 221.11
  Q 477.02 219.04 483.22 222.56
  Q 483.64 222.81 483.82 222.87
  Q 484.01 222.94 484.53 222.89
  C 485.42 222.80 485.87 221.78 485.34 221.07
  Q 484.93 220.52 484.25 220.13
  L 488.35 223.22
  C 488.55 223.37 488.51 223.68 488.28 223.77
  Q 485.68 224.85 485.34 224.92
  C 481.96 225.65 477.64 225.97 475.38 227.75
  C 470.54 231.56 471.75 237.14 473.87 242.36
  Z"
/>
<path vector-effect="non-scaling-stroke" d="
  M 438.70 230.22
  L 438.82 238.02
  C 438.83 238.66 438.02 238.94 437.63 238.43
  L 424.74 221.53
  C 430.34 224.25 433.53 229.48 437.13 234.14
  C 437.26 234.30 437.51 234.30 437.64 234.14
  L 437.81 233.92
  C 437.90 233.81 437.89 233.65 437.80 233.55
  Q 433.44 228.84 429.70 222.94
  C 429.68 222.91 429.69 222.87 429.71 222.85
  C 429.73 222.83 429.76 222.83 429.78 222.85
  Q 429.82 222.90 429.86 222.89
  C 429.90 222.88 429.94 222.90 429.96 222.93
  Q 431.39 225.06 434.46 228.79
  Q 436.34 231.06 438.70 230.22
  Z"
/>
<path vector-effect="non-scaling-stroke" d="
  M 437.45 242.98
  L 429.81 234.74
  C 429.48 234.38 428.88 234.59 428.83 235.07
  C 428.38 239.30 428.02 243.33 425.68 246.92
  C 425.54 247.15 425.24 247.21 425.01 247.07
  L 422.43 245.46
  L 422.42 224.60
  C 422.42 224.21 422.92 224.04 423.16 224.35
  L 437.45 242.98
  Z"
/>
<path vector-effect="non-scaling-stroke" d="
  M 92.49 226.78
  Q 92.50 227.75 92.07 228.04
  Q 92.01 227.29 92.49 226.78
  Z"
/>
<path vector-effect="non-scaling-stroke" d="
  M 89.81 234.04
  L 91.51 229.47
  Q 91.40 232.09 89.81 234.04
  Z"
/>
<path vector-effect="non-scaling-stroke" d="
  M 284.89 231.04
  L 284.91 232.29
  L 284.89 231.04
  Z"
/>
<path vector-effect="non-scaling-stroke" d="
  M 134.18 239.42
  L 130.07 239.36
  L 134.18 239.42
  Z"
/>
<path vector-effect="non-scaling-stroke" d="
  M 185.66 239.52
  Q 180.45 241.85 178.82 242.11
  Q 171.01 243.36 169.55 243.57
  Q 161.64 244.67 154.76 242.98
  Q 152.11 242.32 150.24 242.32
  C 145.99 242.32 143.03 242.95 139.45 239.48
  L 185.66 239.52
  Z"
/>
<path vector-effect="non-scaling-stroke" d="
  M 483.97 243.48
  Q 483.14 244.69 482.62 245.03
  C 482.30 245.24 482.18 245.65 482.35 245.99
  Q 482.37 246.01 482.44 246.13
  C 482.60 246.42 482.48 246.79 482.18 246.92
  C 476.39 249.50 470.69 246.98 467.08 242.17
  Q 473.90 247.58 483.97 243.48
  Z"
/>
<path vector-effect="non-scaling-stroke" d="
  M 294.80 245.16
  Q 294.21 245.44 293.72 245.14
  Q 294.30 244.98 294.80 245.16
  Z"
/>
</g>
<g fill="none" stroke-width="1.00" stroke="#040401" stroke-opacity="0.204">
<path vector-effect="non-scaling-stroke" d="
  M 462.96 178.62
  C 463.36 178.46 463.80 178.72 463.86 179.14
  Q 464.31 182.23 462.60 185.90
  C 462.43 186.25 462.04 186.42 461.68 186.30
  C 456.73 184.68 460.11 179.77 462.96 178.62
  Z"
/>
<path vector-effect="non-scaling-stroke" d="
  M 370.80 193.68
  C 369.91 193.86 369.21 192.91 369.67 192.13
  C 372.03 188.07 378.73 180.51 383.92 180.94
  C 385.04 181.03 385.82 182.04 385.55 183.05
  C 384.57 186.80 373.60 193.07 370.80 193.68
  Z"
/>
<path vector-effect="non-scaling-stroke" d="
  M 293.50 194.76
  C 292.61 194.98 291.88 194.05 292.31 193.25
  C 294.53 189.08 300.99 181.23 306.22 181.47
  C 307.35 181.52 308.17 182.51 307.94 183.53
  C 307.09 187.33 296.30 194.05 293.50 194.76
  Z"
/>
<path vector-effect="non-scaling-stroke" d="
  M 460.65 188.66
  C 460.97 188.86 461.07 189.29 460.86 189.61
  L 460.72 189.85
  C 457.58 194.86 454.25 198.43 453.28 197.83
  L 453.07 197.70
  C 452.10 197.09 453.85 192.53 456.99 187.51
  L 457.13 187.28
  C 457.34 186.95 457.76 186.86 458.08 187.06
  L 460.65 188.66
  Z"
/>
</g>
</svg>
